<?xml version="1.0" encoding="UTF-8"?><svg id="Layer_2" xmlns="http://www.w3.org/2000/svg" viewBox="0 0 641.99 507.28"><defs><style>.cls-1{fill:#fff;}</style></defs><g id="Layer_1-2"><g><path class="cls-1" d="M304.77,355.85c-70.5-.91-147.51-22.38-215.66-71.89-34.77-25.26-62.99-56.51-84.42-93.92-4.72-8.24-4.54-15.54,.16-23.71C40.78,103.91,93.33,60.18,158.98,33.03c110.76-45.79,221.7-44.12,330.82,5.94,59.79,27.43,107.57,69.33,140.82,126.96,5.05,8.75,4.88,16.32-.16,25.01-36.11,62.32-89.17,104.93-154.39,133.13-50.46,21.82-103.48,31.75-171.32,31.78Zm13.06-41.53c74.93,.03,135.54-60.6,135.78-135.82,.24-74.95-60.2-135.76-135.39-136.22-74.95-.46-136.35,60.96-136.15,136.2,.2,75.21,60.77,135.81,135.76,135.84Z"/><g><path class="cls-1" d="M46.73,473.1c.09-.93,.37-2.65,.84-5.16,.46-2.51,1.02-5.39,1.67-8.65,.65-3.25,1.35-6.7,2.09-10.32,.74-3.63,1.49-7.11,2.23-10.46l6.97-31.39h29.02l8.79,38.5c.56,2.23,1.05,4.6,1.46,7.11,.42,2.51,.79,4.98,1.12,7.39,.32,2.42,.63,4.74,.91,6.98,.28,2.23,.51,4.23,.7,6h.7c.09-1.58,.3-3.58,.63-6,.32-2.42,.7-4.9,1.12-7.46,.42-2.56,.84-5.02,1.26-7.39,.42-2.37,.81-4.3,1.19-5.79l4.74-21.21h-7.67v-18.13h39.9v18.13h-7.67l-20.79,79.38h-33.06l-8.37-33.2c-.28-1.21-.61-2.58-.98-4.12-.37-1.53-.7-3.09-.98-4.67-.28-1.58-.56-3.12-.84-4.6-.28-1.49-.51-2.79-.7-3.91h-.56c-.19,1.02-.4,2.3-.63,3.84-.23,1.53-.51,3.12-.84,4.74-.33,1.63-.65,3.19-.98,4.67-.33,1.49-.63,2.74-.91,3.77l-8.51,33.48H26.23L7.81,425.25H0v-18.13H46.04v18.13h-8.09l3.63,20.37c.37,1.67,.79,3.86,1.26,6.56,.46,2.7,.91,5.42,1.33,8.16,.42,2.74,.79,5.3,1.12,7.67,.32,2.37,.58,4.07,.77,5.09h.7Z"/><path class="cls-1" d="M208.14,495c-5.21,4.46-10.7,7.6-16.46,9.42-5.77,1.81-12.28,2.72-19.53,2.72-4.37,0-8.74-.72-13.11-2.16-4.37-1.44-8.3-3.67-11.79-6.7-3.49-3.02-6.35-6.93-8.58-11.72-2.23-4.79-3.35-10.53-3.35-17.23,0-5.67,.98-10.76,2.93-15.28,1.95-4.51,4.6-8.35,7.95-11.51,3.35-3.16,7.3-5.56,11.86-7.18,4.56-1.63,9.49-2.44,14.79-2.44,5.77,0,10.86,.84,15.28,2.51,4.42,1.67,8.11,4,11.09,6.97,2.98,2.98,5.21,6.49,6.7,10.53,1.49,4.05,2.23,8.44,2.23,13.18,0,1.86-.14,3.7-.42,5.51-.28,1.81-.7,3.51-1.25,5.09h-43.94c.19,.93,.49,2.05,.91,3.35,.42,1.3,1.14,2.56,2.16,3.77,1.02,1.21,2.42,2.23,4.19,3.07,1.77,.84,4.14,1.25,7.11,1.25,1.21,0,2.53-.04,3.98-.14,1.44-.09,3-.37,4.67-.84,1.67-.46,3.44-1.14,5.3-2.02,1.86-.88,3.72-2.11,5.58-3.7l11.72,13.53Zm-34.46-43.25c-2.14,0-3.88,.42-5.23,1.26-1.35,.84-2.42,1.84-3.21,3-.79,1.16-1.35,2.4-1.67,3.7-.33,1.3-.54,2.37-.63,3.21h21.07c0-1.3-.14-2.63-.42-3.98-.28-1.35-.77-2.56-1.46-3.63-.7-1.07-1.72-1.93-3.07-2.58-1.35-.65-3.14-.98-5.37-.98Z"/><path class="cls-1" d="M255.57,473.1c.09-.93,.37-2.65,.84-5.16,.46-2.51,1.02-5.39,1.67-8.65,.65-3.25,1.35-6.7,2.09-10.32,.74-3.63,1.49-7.11,2.23-10.46l6.97-31.39h29.02l8.79,38.5c.56,2.23,1.05,4.6,1.46,7.11,.42,2.51,.79,4.98,1.12,7.39,.32,2.42,.63,4.74,.91,6.98,.28,2.23,.51,4.23,.7,6h.7c.09-1.58,.3-3.58,.63-6,.32-2.42,.7-4.9,1.12-7.46,.42-2.56,.84-5.02,1.26-7.39,.42-2.37,.81-4.3,1.19-5.79l4.74-21.21h-7.67v-18.13h39.9v18.13h-7.67l-20.79,79.38h-33.06l-8.37-33.2c-.28-1.21-.61-2.58-.98-4.12-.37-1.53-.7-3.09-.98-4.67-.28-1.58-.56-3.12-.84-4.6-.28-1.49-.51-2.79-.7-3.91h-.56c-.19,1.02-.4,2.3-.63,3.84-.23,1.53-.51,3.12-.84,4.74-.33,1.63-.65,3.19-.98,4.67-.33,1.49-.63,2.74-.91,3.77l-8.51,33.48h-32.36l-18.42-79.38h-7.81v-18.13h46.04v18.13h-8.09l3.63,20.37c.37,1.67,.79,3.86,1.26,6.56,.46,2.7,.91,5.42,1.33,8.16,.42,2.74,.79,5.3,1.12,7.67,.32,2.37,.58,4.07,.77,5.09h.7Z"/><path class="cls-1" d="M348.48,440.73c1.39-.84,3.16-1.81,5.3-2.93,2.14-1.12,4.53-2.21,7.18-3.28,2.65-1.07,5.49-1.95,8.51-2.65,3.02-.7,6.16-1.05,9.42-1.05,4.19,0,8.51,.44,12.97,1.33,4.46,.88,8.53,2.42,12.21,4.6,3.67,2.19,6.7,5.14,9.07,8.86,2.37,3.72,3.56,8.37,3.56,13.95v27.2h8.37v17.86h-29.85l-3.35-6.28c-1.3,1.77-2.77,3.23-4.39,4.39-1.63,1.16-3.3,2.07-5.02,2.72-1.72,.65-3.42,1.12-5.09,1.4-1.67,.28-3.12,.42-4.32,.42-3.35,0-6.65-.47-9.91-1.39-3.26-.93-6.19-2.32-8.79-4.19-2.6-1.86-4.72-4.25-6.35-7.18-1.63-2.93-2.44-6.44-2.44-10.53s.77-7.44,2.3-10.6c1.53-3.16,3.63-5.86,6.28-8.09,2.65-2.23,5.74-3.95,9.28-5.16,3.53-1.21,7.25-1.81,11.16-1.81,2.04,0,3.88,.21,5.51,.63,1.63,.42,3.02,.91,4.18,1.46,1.16,.56,2.09,1.12,2.79,1.67,.7,.56,1.14,.93,1.33,1.12v-4.88c0-3.16-1.25-5.25-3.77-6.28-2.51-1.02-5.67-1.53-9.49-1.53-4.18,0-8.02,.7-11.51,2.09-3.49,1.4-6.58,2.84-9.28,4.33l-5.86-16.18Zm30.97,48.41c2.14,0,4-.51,5.58-1.53,1.58-1.02,2.7-2.04,3.35-3.07v-5.3c-.09-.19-.3-.49-.63-.91-.33-.42-.81-.86-1.46-1.33-.65-.46-1.46-.88-2.44-1.25-.98-.37-2.21-.56-3.7-.56-2.79,0-4.84,.7-6.14,2.09-1.3,1.4-1.95,3.16-1.95,5.3,0,1.95,.7,3.54,2.09,4.74,1.4,1.21,3.16,1.81,5.3,1.81Z"/><path class="cls-1" d="M429.25,434.87h7.53v-12.83l25.67-8.23v21.06h13.25v18.14h-13.25v24.83c0,.65-.02,1.3-.07,1.95-.05,.65-.07,1.35-.07,2.09,0,1.86,.25,3.51,.77,4.95,.51,1.44,1.79,2.16,3.84,2.16,.93,0,2.3-.26,4.12-.77,1.81-.51,3.37-1.05,4.67-1.6v17.86c-1.02,.46-2.33,.86-3.91,1.19-1.58,.33-3.21,.58-4.88,.77-1.67,.19-3.23,.35-4.67,.49-1.44,.14-2.58,.21-3.42,.21-5.21,0-9.28-.7-12.21-2.09-2.93-1.4-5.09-3.35-6.49-5.86-1.39-2.51-2.28-5.58-2.65-9.21-.37-3.63-.61-7.67-.7-12.14v-24.83h-7.53v-18.14Z"/><path class="cls-1" d="M528.02,466.4c-.09-1.67-.3-3.37-.63-5.09-.33-1.72-.82-3.3-1.46-4.74-.65-1.44-1.54-2.6-2.65-3.49-1.12-.88-2.47-1.33-4.05-1.33-2.05,0-3.84,.51-5.37,1.54-1.53,1.02-2.81,2.37-3.84,4.04-1.02,1.67-1.79,3.58-2.3,5.72-.51,2.14-.77,4.33-.77,6.56,0,4.74,1.3,8.67,3.91,11.79,2.6,3.12,6.23,4.67,10.88,4.67,3.53,0,6.6-.72,9.21-2.16,2.6-1.44,5.02-3.37,7.25-5.79l12.28,14.23c-1.67,1.77-3.68,3.51-6,5.23-2.33,1.72-4.95,3.23-7.88,4.53-2.93,1.3-6.12,2.37-9.56,3.21-3.44,.84-7.02,1.26-10.74,1.26-5.12,0-10-.77-14.65-2.3-4.65-1.53-8.72-3.86-12.21-6.98-3.49-3.11-6.28-7-8.37-11.65-2.09-4.65-3.14-10.09-3.14-16.32s.95-11.46,2.86-15.97c1.91-4.51,4.44-8.23,7.6-11.16,3.16-2.93,6.81-5.09,10.95-6.49,4.14-1.39,8.44-2.09,12.9-2.09,2.32,0,4.44,.28,6.35,.84,1.91,.56,3.58,1.25,5.02,2.09,1.44,.84,2.67,1.72,3.7,2.65,1.02,.93,1.81,1.72,2.37,2.37l2.37-6.7h16.46v31.53h-20.51Z"/><path class="cls-1" d="M599.16,504.63h-43.8v-18.28h5.86v-68.22h-5.86v-18.14h33.76v43.53c.37-.65,1.26-1.58,2.65-2.79,1.39-1.21,3.09-2.44,5.09-3.7,2-1.25,4.23-2.35,6.7-3.28,2.46-.93,4.95-1.39,7.46-1.39,5.39,0,9.7,.91,12.9,2.72,3.21,1.81,5.67,4.19,7.39,7.12,1.72,2.93,2.84,6.23,3.35,9.9,.51,3.68,.77,7.32,.77,10.95v23.3h6.56v18.28h-35.85v-37.95c0-1.21-.05-2.56-.14-4.04-.09-1.49-.4-2.88-.91-4.19-.51-1.3-1.33-2.42-2.44-3.35-1.12-.93-2.7-1.4-4.74-1.4-1.77,0-3.23,.4-4.39,1.19-1.16,.79-2.07,1.81-2.72,3.07-.65,1.26-1.09,2.65-1.33,4.19-.23,1.53-.35,3.05-.35,4.53v19.67h10.04v18.28Z"/></g><path class="cls-1" d="M385.11,159.55h0c-1.69-16.5-9.44-31.79-21.75-42.91-12.31-11.12-28.31-17.27-44.9-17.27-16.59,0-32.59,6.16-44.9,17.27-12.31,11.12-20.06,26.41-21.75,42.91-.23,2.26-.34,4.53-.33,6.8,0,2.23,.1,4.46,.32,6.68,2.61,39.72,41.62,82.55,64.25,101.59h0c1.4,1.18,3.45,1.17,4.84-.01,22.64-19.27,61.66-62.35,64.22-101.45,.45-4.53,.45-9.09,0-13.61Zm-67.07,35.04c-15.63,0-28.31-12.67-28.31-28.31s12.67-28.31,28.31-28.31,28.31,12.67,28.31,28.31-12.67,28.31-28.31,28.31Z"/></g></g></svg>