<?xml version="1.0" encoding="UTF-8" ?>
<svg
  id="Layer_2"
  xmlns="http://www.w3.org/2000/svg"
  viewBox="0 0 1398.81 206.9"
><defs><style>.cls-1{fill:#F15A24;}</style></defs><g id="Layer_1-2"><g><path
        class="cls-1"
        d="M176.48,206.9c-40.99-.53-85.77-13.01-125.39-41.8-20.22-14.69-36.62-32.86-49.08-54.61-2.74-4.79-2.64-9.04,.09-13.79C22.99,60.42,53.55,34.99,91.72,19.21c64.4-26.63,128.9-25.65,192.35,3.46,34.77,15.95,62.54,40.31,81.88,73.82,2.94,5.09,2.84,9.49-.09,14.54-20.99,36.23-51.84,61.01-89.77,77.4-29.34,12.69-60.17,18.46-99.61,18.48Zm7.59-24.15c43.57,.02,78.81-35.23,78.95-78.97,.14-43.58-35-78.93-78.72-79.2-43.58-.27-79.28,35.44-79.16,79.19,.12,43.73,35.33,78.97,78.93,78.98Z"
      /><path
        class="cls-1"
        d="M223.2,92.77h0c-.98-9.59-5.49-18.48-12.65-24.95-7.16-6.46-16.46-10.04-26.11-10.04-9.65,0-18.95,3.58-26.11,10.04-7.16,6.46-11.66,15.35-12.65,24.95-.13,1.31-.2,2.63-.19,3.96,0,1.3,.06,2.59,.19,3.88,1.52,23.09,24.2,48,37.36,59.07h0c.82,.68,2,.68,2.82,0,13.17-11.2,35.85-36.25,37.34-58.99,.26-2.63,.26-5.28,0-7.92Zm-39,20.37c-9.09,0-16.46-7.37-16.46-16.46s7.37-16.46,16.46-16.46,16.46,7.37,16.46,16.46-7.37,16.46-16.46,16.46Z"
      /></g><g><path
        class="cls-1"
        d="M477.26,130.99c.14-1.44,.57-4.1,1.3-7.99,.72-3.89,1.58-8.35,2.59-13.39,1.01-5.04,2.09-10.37,3.24-15.98,1.15-5.62,2.3-11.01,3.46-16.2l10.8-48.59h44.92l13.61,59.61c.86,3.45,1.62,7.13,2.27,11.01,.65,3.89,1.22,7.7,1.73,11.45,.5,3.75,.97,7.34,1.4,10.8,.43,3.46,.79,6.55,1.08,9.29h1.08c.14-2.45,.47-5.54,.97-9.29,.5-3.74,1.08-7.59,1.73-11.56,.65-3.96,1.3-7.77,1.94-11.45,.65-3.67,1.26-6.66,1.84-8.96l7.34-32.83h-11.88V28.83h61.77v28.08h-11.88l-32.18,122.89h-51.19l-12.96-51.4c-.43-1.87-.94-3.99-1.51-6.37-.58-2.38-1.08-4.79-1.51-7.23-.43-2.45-.86-4.82-1.3-7.13-.43-2.3-.79-4.32-1.08-6.05h-.86c-.29,1.59-.62,3.56-.97,5.94-.36,2.38-.79,4.83-1.3,7.34-.51,2.52-1.01,4.93-1.51,7.24-.51,2.3-.97,4.25-1.4,5.83l-13.17,51.83h-50.11l-28.51-122.89h-12.1V28.83h71.27v28.08h-12.53l5.62,31.53c.57,2.59,1.22,5.98,1.94,10.15,.72,4.18,1.4,8.39,2.05,12.63,.65,4.25,1.22,8.21,1.73,11.88,.5,3.67,.9,6.3,1.19,7.88h1.08Z"
      /><path
        class="cls-1"
        d="M727.14,164.9c-8.07,6.91-16.56,11.77-25.49,14.58-8.93,2.81-19.01,4.21-30.24,4.21-6.77,0-13.54-1.12-20.3-3.35-6.77-2.23-12.85-5.69-18.25-10.37-5.4-4.68-9.83-10.72-13.28-18.14-3.46-7.41-5.18-16.31-5.18-26.67,0-8.78,1.51-16.66,4.54-23.65,3.02-6.98,7.13-12.92,12.31-17.82,5.18-4.89,11.3-8.6,18.36-11.12,7.05-2.52,14.69-3.78,22.89-3.78,8.93,0,16.81,1.3,23.65,3.89,6.84,2.59,12.56,6.19,17.17,10.8,4.61,4.61,8.06,10.04,10.37,16.31,2.3,6.26,3.46,13.07,3.46,20.41,0,2.88-.22,5.72-.65,8.53-.43,2.81-1.08,5.44-1.94,7.88h-68.03c.29,1.44,.76,3.17,1.4,5.18,.65,2.02,1.76,3.96,3.35,5.83,1.58,1.87,3.74,3.46,6.48,4.75,2.73,1.3,6.4,1.94,11.01,1.94,1.87,0,3.92-.07,6.15-.21,2.23-.14,4.64-.57,7.24-1.3,2.59-.72,5.32-1.76,8.21-3.13,2.88-1.37,5.76-3.27,8.64-5.72l18.14,20.95Zm-53.35-66.95c-3.31,0-6.01,.65-8.1,1.94-2.09,1.3-3.75,2.84-4.97,4.64-1.22,1.8-2.09,3.71-2.59,5.72-.51,2.02-.83,3.67-.97,4.97h32.61c0-2.01-.22-4.07-.65-6.15-.43-2.08-1.19-3.96-2.27-5.62-1.08-1.65-2.67-2.99-4.75-4-2.09-1.01-4.86-1.51-8.32-1.51Z"
      /><path
        class="cls-1"
        d="M800.57,130.99c.14-1.44,.57-4.1,1.3-7.99,.72-3.89,1.58-8.35,2.59-13.39,1.01-5.04,2.09-10.37,3.24-15.98,1.15-5.62,2.3-11.01,3.46-16.2l10.8-48.59h44.92l13.61,59.61c.86,3.45,1.62,7.13,2.27,11.01,.65,3.89,1.22,7.7,1.73,11.45,.5,3.75,.97,7.34,1.4,10.8,.43,3.46,.79,6.55,1.08,9.29h1.08c.14-2.45,.47-5.54,.97-9.29,.5-3.74,1.08-7.59,1.73-11.56,.65-3.96,1.3-7.77,1.94-11.45,.65-3.67,1.26-6.66,1.84-8.96l7.34-32.83h-11.88V28.83h61.77v28.08h-11.88l-32.18,122.89h-51.19l-12.96-51.4c-.43-1.87-.94-3.99-1.51-6.37-.58-2.38-1.08-4.79-1.51-7.23-.43-2.45-.86-4.82-1.3-7.13-.43-2.3-.79-4.32-1.08-6.05h-.86c-.29,1.59-.62,3.56-.97,5.94-.36,2.38-.79,4.83-1.3,7.34-.51,2.52-1.01,4.93-1.51,7.24-.51,2.3-.97,4.25-1.4,5.83l-13.17,51.83h-50.11l-28.51-122.89h-12.1V28.83h71.27v28.08h-12.53l5.62,31.53c.57,2.59,1.22,5.98,1.94,10.15,.72,4.18,1.4,8.39,2.05,12.63,.65,4.25,1.22,8.21,1.73,11.88,.5,3.67,.9,6.3,1.19,7.88h1.08Z"
      /><path
        class="cls-1"
        d="M944.41,80.88c2.16-1.3,4.89-2.81,8.21-4.54,3.31-1.73,7.02-3.42,11.12-5.08,4.1-1.65,8.49-3.02,13.17-4.1,4.68-1.08,9.54-1.62,14.58-1.62,6.48,0,13.17,.69,20.09,2.05,6.91,1.37,13.21,3.74,18.9,7.13,5.69,3.38,10.37,7.96,14.04,13.71,3.67,5.76,5.51,12.96,5.51,21.6v42.11h12.96v27.64h-46.22l-5.18-9.72c-2.02,2.74-4.29,5-6.8,6.8-2.52,1.8-5.11,3.2-7.78,4.21-2.67,1.01-5.29,1.73-7.88,2.16-2.59,.43-4.83,.65-6.69,.65-5.18,0-10.3-.72-15.33-2.16-5.04-1.44-9.58-3.6-13.61-6.48-4.03-2.88-7.31-6.59-9.83-11.12-2.52-4.54-3.78-9.97-3.78-16.31s1.19-11.52,3.56-16.41c2.38-4.89,5.62-9.07,9.72-12.53,4.1-3.46,8.89-6.12,14.36-7.99,5.47-1.87,11.23-2.81,17.28-2.81,3.17,0,6.01,.33,8.53,.97,2.52,.65,4.68,1.4,6.48,2.27,1.8,.86,3.24,1.73,4.32,2.59,1.08,.86,1.76,1.44,2.05,1.73v-7.56c0-4.89-1.94-8.13-5.83-9.72-3.89-1.58-8.78-2.38-14.69-2.38-6.48,0-12.42,1.08-17.82,3.24-5.4,2.16-10.19,4.39-14.36,6.7l-9.07-25.05Zm47.95,74.94c3.31,0,6.19-.79,8.64-2.38,2.45-1.58,4.17-3.17,5.18-4.75v-8.21c-.15-.29-.47-.76-.97-1.4-.5-.65-1.26-1.33-2.27-2.05-1.01-.72-2.27-1.37-3.78-1.94-1.51-.57-3.42-.86-5.72-.86-4.32,0-7.49,1.08-9.5,3.24-2.02,2.16-3.02,4.9-3.02,8.21,0,3.02,1.08,5.47,3.24,7.34,2.16,1.87,4.89,2.81,8.21,2.81Z"
      /><path
        class="cls-1"
        d="M1069.46,71.81h11.66v-19.87l39.74-12.74v32.61h20.52v28.08h-20.52v38.44c0,1.01-.04,2.02-.11,3.02-.07,1.01-.11,2.09-.11,3.24,0,2.88,.39,5.44,1.19,7.67,.79,2.23,2.77,3.35,5.94,3.35,1.44,0,3.56-.4,6.37-1.19,2.81-.79,5.22-1.62,7.23-2.48v27.64c-1.59,.72-3.6,1.33-6.05,1.84-2.45,.5-4.97,.9-7.56,1.19-2.59,.29-5,.54-7.24,.76-2.23,.22-4,.32-5.29,.32-8.06,0-14.36-1.08-18.9-3.24-4.54-2.16-7.88-5.18-10.04-9.07-2.16-3.89-3.53-8.64-4.1-14.25-.58-5.62-.94-11.88-1.08-18.79v-38.44h-11.66v-28.08Z"
      /><path
        class="cls-1"
        d="M1222.37,120.62c-.15-2.59-.47-5.22-.97-7.88-.51-2.66-1.26-5.11-2.27-7.34-1.01-2.23-2.38-4.03-4.1-5.4-1.73-1.37-3.82-2.05-6.26-2.05-3.17,0-5.94,.79-8.32,2.38-2.38,1.59-4.36,3.67-5.94,6.26-1.59,2.59-2.77,5.55-3.56,8.86-.79,3.31-1.19,6.7-1.19,10.15,0,7.34,2.02,13.43,6.05,18.25,4.03,4.83,9.64,7.24,16.85,7.24,5.47,0,10.22-1.11,14.26-3.35,4.03-2.23,7.77-5.22,11.23-8.96l19.01,22.03c-2.59,2.74-5.69,5.44-9.29,8.1-3.6,2.67-7.67,5-12.2,7.02-4.54,2.02-9.47,3.67-14.79,4.97-5.33,1.3-10.87,1.94-16.63,1.94-7.92,0-15.48-1.19-22.68-3.56-7.2-2.38-13.5-5.97-18.9-10.8-5.4-4.82-9.72-10.83-12.96-18.03-3.24-7.2-4.86-15.62-4.86-25.27s1.47-17.74,4.43-24.73c2.95-6.98,6.87-12.74,11.77-17.28,4.89-4.54,10.55-7.88,16.95-10.04,6.4-2.16,13.07-3.24,19.98-3.24,3.6,0,6.87,.43,9.83,1.3,2.95,.86,5.54,1.94,7.78,3.24,2.23,1.3,4.14,2.67,5.72,4.1,1.58,1.44,2.81,2.67,3.67,3.67l3.67-10.37h25.49v48.81h-31.75Z"
      /><path
        class="cls-1"
        d="M1332.51,179.8h-67.82v-28.29h9.07V45.9h-9.07V17.82h52.27V85.2c.57-1.01,1.94-2.45,4.1-4.32,2.16-1.87,4.79-3.78,7.88-5.72,3.09-1.94,6.55-3.63,10.37-5.08,3.81-1.44,7.67-2.16,11.55-2.16,8.35,0,15.01,1.4,19.98,4.21,4.97,2.81,8.78,6.48,11.45,11.02,2.66,4.54,4.39,9.65,5.18,15.33,.79,5.69,1.19,11.34,1.19,16.95v36.07h10.15v28.29h-55.51v-58.75c0-1.87-.07-3.96-.22-6.26-.15-2.3-.61-4.46-1.4-6.48-.79-2.01-2.05-3.74-3.78-5.18-1.73-1.44-4.18-2.16-7.34-2.16-2.74,0-5,.61-6.8,1.84-1.8,1.23-3.21,2.81-4.21,4.75-1.01,1.94-1.69,4.1-2.05,6.48-.36,2.38-.54,4.72-.54,7.02v30.45h15.55v28.29Z"
      /></g></g></svg>
