<?xml version='1.0' encoding='iso-8859-1'?>
<!DOCTYPE svg PUBLIC '-//W3C//DTD SVG 1.1//EN' 'http://www.w3.org/Graphics/SVG/1.1/DTD/svg11.dtd'>
<svg version="1.1" xmlns="http://www.w3.org/2000/svg" viewBox="0 0 275.572 275.572" xmlns:xlink="http://www.w3.org/1999/xlink" enable-background="new 0 0 275.572 275.572">
  <g>
    <path d="m269.572,136.724h-84.234l-16.095-27.954h24.305c13.265,0 24.057-10.792 24.057-24.057 0-3.313-2.687-6-6-6h-147.637c-3.313,0-6,2.687-6,6 0,13.265 10.792,24.057 24.057,24.057h24.305l-16.095,27.954h-84.235c-3.313,0-6,2.686-6,6 0,13.265 10.792,24.057 24.057,24.057h17.919c11.194,0 20.628-7.686 23.3-18.057h18.049l-22.537,39.141c-1.654,2.872-0.666,6.54 2.205,8.193 0.943,0.543 1.973,0.801 2.988,0.801 2.076,0 4.096-1.079 5.205-3.007l25.984-45.128h81.231l25.984,45.128c1.11,1.929 3.129,3.007 5.205,3.007 1.016,0 2.045-0.258 2.988-0.801 2.871-1.653 3.859-5.322 2.205-8.193l-22.537-39.141h18.049c2.672,10.371 12.105,18.057 23.3,18.057h17.919c13.265,0 24.057-10.792 24.057-24.057 0.001-3.314-2.685-6-5.999-6zm-227.596,18.056h-17.919c-4.465,0-8.371-2.44-10.455-6.057h38.83c-2.084,3.617-5.991,6.057-10.456,6.057zm29.593-64.067h132.434c-2.084,3.617-5.989,6.057-10.455,6.057h-111.524c-4.465,0-8.371-2.44-10.455-6.057zm32.511,46.011l16.095-27.954h35.222l16.095,27.954h-67.412zm147.436,18.056h-17.919c-4.466,0-8.372-2.44-10.456-6.057h38.83c-2.084,3.617-5.991,6.057-10.455,6.057z"/>
  </g>
</svg>
