<svg xmlns="http://www.w3.org/2000/svg" xmlns:xlink="http://www.w3.org/1999/xlink" version="1.1" x="0px" y="0px" viewBox="0 0 100 125" enable-background="new 0 0 100 100" xml:space="preserve"><path d="M92.574,22.886h-2.889c-0.068,0-0.135,0.01-0.201,0.02v-3.201c0-0.836-0.678-1.512-1.514-1.512H54.695  c-1.877,0-3.557,0.838-4.693,2.156c-1.141-1.318-2.82-2.156-4.693-2.156H12.032c-0.835,0-1.515,0.676-1.515,1.512v3.183H7.432  c-0.836,0-1.516,0.679-1.516,1.513v45.659c0,0.835,0.68,1.515,1.516,1.515H50c0.002,0,0.002,0,0.002,0h6.771v8.723  c0,0.621,0.381,1.179,0.957,1.406c0.576,0.229,1.234,0.08,1.66-0.373l2.678-2.86l2.68,2.86c0.291,0.313,0.693,0.479,1.105,0.479  c0.188,0,0.373-0.034,0.555-0.106c0.576-0.228,0.957-0.785,0.957-1.405v-8.724h25.209c0.834,0,1.51-0.679,1.51-1.514V24.401  C94.084,23.563,93.408,22.886,92.574,22.886z M89.484,65.364V25.89c0.066,0.01,0.133,0.021,0.201,0.021h1.373v42.634H67.365v-1.668  h20.605C88.807,66.876,89.484,66.198,89.484,65.364z M54.695,21.216h31.766v42.635H54.695c-1.164,0-2.25,0.328-3.182,0.889v-40.34  C51.514,22.644,52.941,21.216,54.695,21.216z M13.543,21.216h31.766c1.754,0,3.182,1.428,3.182,3.184v40.34  c-0.934-0.561-2.018-0.889-3.182-0.889H13.543V21.216z M8.942,25.909h1.575v39.453c0,0.836,0.679,1.514,1.514,1.514h33.275  c1.207,0,2.258,0.677,2.797,1.668H8.942V25.909z M51.896,68.544c0.539-0.991,1.592-1.668,2.799-1.668h2.078v1.668H51.896z   M64.34,76.465l-1.166-1.245c-0.287-0.307-0.686-0.479-1.105-0.479c-0.418,0-0.816,0.172-1.104,0.479l-1.166,1.245v-9.589h4.541  V76.465L64.34,76.465z"/></svg>