<svg xmlns:dc="http://purl.org/dc/elements/1.1/" xmlns:cc="http://creativecommons.org/ns#" xmlns:rdf="http://www.w3.org/1999/02/22-rdf-syntax-ns#" xmlns:svg="http://www.w3.org/2000/svg" xmlns="http://www.w3.org/2000/svg" xmlns:sodipodi="http://sodipodi.sourceforge.net/DTD/sodipodi-0.dtd" xmlns:inkscape="http://www.inkscape.org/namespaces/inkscape" viewBox="0 0 8.4666665 10.583333625" version="1.1" x="0px" y="0px"><g transform="translate(0,-288.53332)"><path style="" d="m 7.5918813,292.72376 -0.5281322,0.52814 0.1229889,0.22788 c 0.1453118,0.26988 0.2216918,0.5715 0.2216918,0.878 l 0,1.9146 0.6614583,0 0,-2.18591 c 0,-0.30207 -0.074147,-0.59962 -0.2154899,-0.86661 z" stroke="none"/><path style="" d="m 3.5081591,291.05485 1.0289858,-1.02899 c 0.3099805,-0.30999 0.812546,-0.30999 1.1225319,0 l 1.7773438,1.77734 c 0.2066581,0.20666 0.2066529,0.54171 0,0.74835 l -0.6548093,0.65481 -1.1225345,-1.12254 a 0.39687501,0.39687504 0 0 0 -0.561266,0 l -0.6548093,0.65481 -0.9354424,-0.93543 c -0.2066581,-0.20667 -0.2066528,-0.54171 0,-0.74835 z" /><path style="color:#000000;font-style:normal;font-variant:normal;font-weight:normal;font-stretch:normal;font-size:medium;line-height:normal;font-family:sans-serif;text-indent:0;text-align:start;text-decoration:none;text-decoration-line:none;text-decoration-style:solid;text-decoration-color:#000000;letter-spacing:normal;word-spacing:normal;text-transform:none;direction:ltr;writing-mode:lr-tb;baseline-shift:baseline;text-anchor:start;white-space:normal;clip-rule:nonzero;display:inline;overflow:visible;visibility:visible;opacity:1;isolation:auto;mix-blend-mode:normal;color-interpolation:sRGB;color-interpolation-filters:linearRGB;solid-color:#000000;solid-opacity:1;fill-opacity:1;fill-rule:evenodd;stroke:none;stroke-width:1px;stroke-linecap:butt;stroke-linejoin:miter;stroke-miterlimit:4;stroke-dasharray:none;stroke-dashoffset:0;stroke-opacity:1;color-rendering:auto;image-rendering:auto;shape-rendering:auto;text-rendering:auto;enable-background:accumulate" d="m 4.8178916,292.72715 -0.1870683,0.18706 0.1333235,0.13332 c 0.3826352,0.38264 1.0074619,0.38264 1.3900971,0 l 0.066662,-0.0666 -0.1870683,-0.18706 -0.066662,0.0666 c -0.2815246,0.28152 -0.7339198,0.28152 -1.0154417,0 z"/><path d="m 5.2615847,291.88014 a 0.1323049,0.13230491 0 0 0 -0.036174,0.0924 l 5.3e-6,0.66138 a 0.13246181,0.13246182 0 1 0 0.264922,0 l -2.646e-4,-0.66175 a 0.1323049,0.13230491 0 0 0 -0.2283751,-0.0924 z" style="color:#000000;font-style:normal;font-variant:normal;font-weight:normal;font-stretch:normal;font-size:medium;line-height:normal;font-family:sans-serif;text-indent:0;text-align:start;text-decoration:none;text-decoration-line:none;text-decoration-style:solid;text-decoration-color:#000000;letter-spacing:normal;word-spacing:normal;text-transform:none;direction:ltr;writing-mode:lr-tb;baseline-shift:baseline;text-anchor:start;white-space:normal;clip-rule:nonzero;display:inline;overflow:visible;visibility:visible;opacity:1;isolation:auto;mix-blend-mode:normal;color-interpolation:sRGB;color-interpolation-filters:linearRGB;solid-color:#000000;solid-opacity:1;fill-opacity:1;fill-rule:evenodd;stroke:none;stroke-width:1px;stroke-linecap:round;stroke-linejoin:round;stroke-miterlimit:4;stroke-dasharray:none;stroke-dashoffset:0;stroke-opacity:1;color-rendering:auto;image-rendering:auto;shape-rendering:auto;text-rendering:auto;enable-background:accumulate"/><path d="m 2.3849658,289.26092 c -0.1044945,2e-4 -0.2095447,0.009 -0.3136768,0.0253 l -1.0128594,0.16174 0.1984375,0.66146 0.703834,-0.10542 c 0.4014603,-0.0602 0.8116676,0.0131 1.1673708,0.20877 l 0.5772256,0.3173 0.566891,-0.56689 -0.9803024,-0.48938 c -0.2829693,-0.14071 -0.5934393,-0.21348 -0.9069203,-0.21291 z" style="" /><path d="m 1.6806502,293.36191 c 0,0.35581 -0.2874036,0.64424 -0.6419374,0.64424 -0.35453104,0 -0.6419347,-0.28843 -0.6419347,-0.64424 0,-0.35578 0.6419347,-1.10437 0.6419347,-1.10437 0,0 0.6419374,0.74859 0.6419374,1.10437 z" style="opacity:1;fill-opacity:1;stroke:none;stroke-width:1;stroke-linecap:round;stroke-linejoin:round;stroke-miterlimit:4;stroke-dasharray:none;stroke-opacity:1"/></g><text x="0" y="23.4666669" font-size="5px" font-weight="bold" font-family="'Helvetica Neue', Helvetica, Arial-Unicode, Arial, Sans-serif">Created by anbileru adaleru</text><text x="0" y="28.4666669" font-size="5px" font-weight="bold" font-family="'Helvetica Neue', Helvetica, Arial-Unicode, Arial, Sans-serif">from the Noun Project</text></svg>