<svg version="1.1" xmlns="http://www.w3.org/2000/svg" xmlns:xlink="http://www.w3.org/1999/xlink" x="0px" y="0px" viewBox="0 0 32 32" xml:space="preserve" width="32" height="32"><g class="nc-icon-wrapper" ><path d="M30.88,29.526l-14-26c-0.349-0.647-1.412-0.647-1.761,0l-14,26c-0.167,0.31-0.159,0.685,0.022,0.987 C1.322,30.815,1.648,31,2,31h28c0.352,0,0.678-0.185,0.858-0.487C31.039,30.21,31.047,29.836,30.88,29.526z M17.714,12L17,22h-2 l-0.714-10H17.714z M16,28c-0.982,0-1.778-0.796-1.778-1.778c0-0.982,0.796-1.778,1.778-1.778s1.778,0.796,1.778,1.778 C17.778,27.204,16.982,28,16,28z"></path></g></svg>