<svg version="1.1" xmlns="http://www.w3.org/2000/svg" xmlns:xlink="http://www.w3.org/1999/xlink" x="0px" y="0px" viewBox="0 0 32 32" xml:space="preserve" width="32" height="32"><g class="nc-icon-wrapper"><path d="M14,0c-0.6,0-1,0.4-1,1v6h-3V1c0-0.6-0.4-1-1-1S8,0.4,8,1v6H5V1c0-0.6-0.4-1-1-1S3,0.4,3,1v10 c0,1.7,1.3,3,3,3v15c0,1.7,1.3,3,3,3s3-1.3,3-3V14c1.7,0,3-1.3,3-3V1C15,0.4,14.6,0,14,0z"></path> <path data-color="color-2" d="M26,0c-3.9,0-7,3.1-7,7v13c0,0.6,0.4,1,1,1h1v8c0,1.7,1.3,3,3,3s3-1.3,3-3v-9V1 C27,0.4,26.6,0,26,0z"></path></g></svg>
