<svg version="1.1" xmlns="http://www.w3.org/2000/svg" xmlns:xlink="http://www.w3.org/1999/xlink" x="0px" y="0px" viewBox="0 0 32 32" xml:space="preserve" width="32" height="32"><g class="nc-icon-wrapper"><path data-color="color-2" d="M30,4h-8V1c0-0.552-0.447-1-1-1H11c-0.553,0-1,0.448-1,1v3H2C1.447,4,1,4.448,1,5v3 c0,0.552,0.447,1,1,1h28c0.553,0,1-0.448,1-1V5C31,4.448,30.553,4,30,4z M12,2h8v2h-8V2z"></path> <path d="M28,11H4v20c0,0.552,0.448,1,1,1h22c0.552,0,1-0.448,1-1V11z M12,26h-2v-9h2V26z M17,26h-2v-9h2V26z M22,26 h-2v-9h2V26z"></path></g></svg>
