<svg version="1.1" xmlns="http://www.w3.org/2000/svg" xmlns:xlink="http://www.w3.org/1999/xlink" x="0px" y="0px" viewBox="0 0 32 32" xml:space="preserve" width="32" height="32"><g class="nc-icon-wrapper"><path data-color="color-2" d="M6,21.56201l-0.71875,0.74268C4.7334,22.87061,2,25.80664,2,28c0,2.50391,2.03369,4,4,4 s4-1.49609,4-4c0-2.19336-2.7334-5.12939-3.28125-5.69531L6,21.56201z"></path> <path d="M23.00012,8c-0.72473-0.97327-1.78986-1.65558-3.02081-1.8974C19.98309,6.0672,20,6.03638,20,6V2h5 c0.55225,0,1-0.44775,1-1s-0.44775-1-1-1H13c-0.55225,0-1,0.44775-1,1s0.44775,1,1,1h5v4c0,0.03638,0.01691,0.0672,0.02069,0.10254 C16.78955,6.34436,15.72437,7.02655,14.99969,8H11c-4.41113,0-8,3.58887-8,8v3h6v-3c0-1.10303,0.89697-2,2-2h3.99969 c0.91138,1.22418,2.35681,2,4.00031,2c1.63074,0,3.08752-0.79181,4-2c0.00708-0.0094,6,0,6,0V8H23.00012z"></path></g></svg>
