<?xml version="1.0" encoding="UTF-8"?>
<svg width="250px" height="50px" viewBox="0 0 250 50" version="1.1" xmlns="http://www.w3.org/2000/svg" xmlns:xlink="http://www.w3.org/1999/xlink">
    <!-- Generator: Sketch 45.2 (43514) - http://www.bohemiancoding.com/sketch -->
    <title>restspace__logo</title>
    <desc>Created with Sketch.</desc>
    <defs>
        <path d="M11.355,33.7844644 L11.355,38.5875 L20.5422,38.5875 L20.5422,31.3481824 L23.9874,31.3481824 L27.3138,38.5875 L37.689,38.5875 L32.2242,29.5184647 C34.8317284,27.917874 36.3462777,25.2527017 36.5861079,21.7054978 C22.0801675,23.0986374 14.8985411,28.7842178 11.355,33.7844644 Z M11.355,20.1505815 L11.355,10.7041941 L24.7794,10.7041941 C30.6214174,10.7041941 34.5296492,12.8864002 35.9850619,16.8411829 C28.2996262,16.6245 18.4123873,17.1026486 11.355,20.1505815 Z" id="path-1"></path>
    </defs>
    <g id="brand-assets" stroke="none" stroke-width="1" fill="none" fill-rule="evenodd">
        <g id="restspace__logo">
            <path d="M79.498,28.59 C80.926,29.178 81.514,30.102 82.48,31.908 L85.126,36.906 C85.42,37.494 85.714,37.662 86.218,37.872 C86.554,37.998 86.764,38.166 86.764,38.586 C86.764,39.048 86.47,39.342 86.008,39.342 L79.75,39.342 C77.986,39.342 77.482,38.376 76.558,36.57 L73.45,30.396 C73.156,29.808 72.82,29.556 72.274,29.556 L71.476,29.556 L71.476,38.544 C71.476,39.006 71.14,39.342 70.678,39.342 L64.798,39.342 C64.336,39.342 64,39.006 64,38.544 L64,13.218 C64,12.756 64.336,12.42 64.798,12.42 L76.81,12.42 C81.514,12.42 84.664,16.032 84.664,20.988 C84.664,25.02 82.564,27.792 79.498,28.59 Z M71.476,18.3 L71.476,24.096 L73.912,24.096 C76.096,24.096 77.188,23.298 77.188,21.198 C77.188,19.098 76.096,18.3 73.954,18.3 L71.476,18.3 Z M97.516,39.762 C90.628,39.762 87.52,35.394 87.52,29.262 C87.52,23.13 91.006,18.762 97.39,18.762 C102.598,18.762 106.252,21.198 106.252,27.456 C106.252,28.338 106.21,29.682 106.042,30.732 L94.996,30.732 C94.996,33.378 96.508,34.008 99.994,34.008 C101.128,34.008 102.052,33.882 102.808,33.714 C103.942,33.462 104.656,33.126 105.118,33.126 C105.622,33.126 105.958,33.504 105.958,34.26 L105.958,35.478 C105.958,36.612 105.79,37.242 105.454,37.578 C104.152,38.88 100.876,39.762 97.516,39.762 Z M94.954,27.162 L99.658,27.162 C99.7,26.742 99.742,26.364 99.742,26.028 C99.742,24.222 98.86,23.508 97.432,23.508 C95.752,23.508 94.954,24.474 94.954,27.162 Z M116.29,39.762 C120.616,39.762 124.69,37.704 124.69,32.79 C124.69,28.506 121.96,27.372 118.054,26.658 C116.752,26.406 116.122,26.196 116.122,25.356 C116.122,24.474 116.836,24.18 117.634,24.18 C119.524,24.18 120.91,24.936 122.044,25.608 C122.506,25.902 122.884,26.028 123.22,26.028 C123.766,26.028 124.06,25.692 124.06,24.81 L124.06,22.122 C124.06,21.324 123.85,20.82 122.884,20.274 C121.834,19.644 119.566,18.762 116.626,18.762 C112.594,18.762 108.604,20.904 108.604,25.524 C108.604,29.808 111.67,30.816 115.282,31.488 C116.374,31.698 117.13,31.908 117.13,32.874 C117.13,33.882 116.248,34.134 115.072,34.134 C113.56,34.134 111.628,33.21 110.494,32.58 C109.948,32.286 109.654,32.16 109.318,32.16 C108.772,32.16 108.478,32.496 108.478,33.378 L108.478,36.192 C108.478,37.032 108.688,37.41 109.654,38.04 C110.62,38.67 112.846,39.762 116.29,39.762 Z M133.972,39.678 C136.534,39.678 138.298,39.258 139.348,38.208 C139.684,37.872 139.852,37.242 139.852,36.108 L139.852,34.848 C139.852,33.924 139.348,33.798 138.844,33.966 C138.172,34.176 137.752,34.302 137.164,34.302 C136.366,34.302 136.156,33.84 136.156,33 L136.156,23.802 L139.054,23.802 C139.516,23.802 139.852,23.466 139.852,23.004 L139.852,19.98 C139.852,19.518 139.516,19.182 139.054,19.182 L136.156,19.182 L136.156,15.108 C136.156,14.646 135.82,14.31 135.358,14.31 L129.478,14.31 C129.016,14.31 128.68,14.646 128.68,15.108 L128.68,19.182 L126.748,19.182 C126.286,19.182 125.95,19.518 125.95,19.98 L125.95,23.004 C125.95,23.466 126.286,23.802 126.748,23.802 L128.68,23.802 L128.68,34.974 C128.68,38.124 130.948,39.678 133.972,39.678 Z M143.086,37.662 C144.136,38.418 146.866,39.762 150.898,39.762 C155.854,39.762 160.684,36.99 160.684,31.11 C160.684,25.44 157.408,23.718 152.998,22.416 C151.318,21.912 150.142,21.534 150.142,20.106 C150.142,18.552 151.402,18.09 152.578,18.09 C154.804,18.09 156.442,19.182 157.45,19.896 C157.996,20.274 158.458,20.652 158.962,20.652 C159.55,20.652 159.928,20.232 159.928,19.308 L159.928,15.906 C159.928,14.772 159.592,14.352 158.668,13.806 C157.408,13.05 154.678,12 151.276,12 C146.656,12 141.952,14.226 141.952,20.316 C141.952,25.524 145.354,27.54 149.47,28.716 C150.94,29.136 152.494,29.64 152.494,31.152 C152.494,32.748 151.36,33.336 149.722,33.336 C148.126,33.336 146.026,32.496 144.346,31.32 C143.758,30.9 143.296,30.564 142.75,30.564 C142.162,30.564 141.784,30.984 141.784,31.908 L141.784,35.31 C141.784,36.444 142.036,36.906 143.086,37.662 Z M164.422,48.414 C163.96,48.414 163.624,48.078 163.624,47.616 L163.624,19.98 C163.624,19.518 163.96,19.182 164.422,19.182 L167.236,19.182 C168.832,19.182 170.26,19.854 170.806,21.24 C171.688,20.148 172.906,18.972 176.182,18.972 C180.424,18.972 184.372,21.786 184.372,29.262 C184.372,36.738 180.424,39.552 176.182,39.552 C173.158,39.552 171.898,38.376 171.1,37.536 L171.1,47.616 C171.1,48.078 170.764,48.414 170.302,48.414 L164.422,48.414 Z M173.704,33.462 C175.762,33.462 176.896,32.538 176.896,29.262 C176.896,25.986 175.762,25.062 173.704,25.062 C172.696,25.062 171.856,25.314 171.1,25.692 L171.1,32.832 C171.856,33.21 172.696,33.462 173.704,33.462 Z M197.77,37.662 C197.014,38.586 195.712,39.552 192.772,39.552 C189.202,39.552 186.22,37.83 186.22,33.252 C186.22,28.926 189.622,26.952 194.032,26.952 C195.628,26.952 196.846,27.162 197.644,27.33 L197.644,26.826 C197.644,25.062 197.434,24.348 195.25,24.348 C192.73,24.348 191.134,24.936 190.126,25.272 C189.328,25.524 188.698,25.734 188.236,25.734 C187.732,25.734 187.48,25.44 187.48,24.642 L187.48,22.122 C187.48,21.114 187.942,20.568 189.118,20.022 C190.84,19.182 194.158,18.762 196.636,18.762 C202.264,18.762 204.91,20.778 204.91,25.902 L204.91,34.554 C204.91,35.478 205.162,35.898 205.708,35.898 L205.708,36.402 C205.708,37.872 205.162,39.594 201.718,39.594 C199.618,39.594 198.358,38.922 197.77,37.662 Z M195.796,35.184 C196.594,35.184 197.182,34.932 197.644,34.764 L197.644,30.564 C197.182,30.396 196.594,30.228 195.796,30.228 C194.284,30.228 193.486,30.858 193.486,32.706 C193.486,34.554 194.284,35.184 195.796,35.184 Z M217.972,39.762 C220.912,39.762 222.802,38.88 223.768,38.25 C224.734,37.62 224.944,37.242 224.944,36.402 L224.944,33.462 C224.944,32.58 224.734,32.076 224.062,32.076 C223.684,32.076 223.39,32.244 222.802,32.538 C221.668,33.126 220.366,33.462 218.938,33.462 C216.838,33.462 215.116,32.622 215.116,29.262 C215.116,25.902 216.838,25.062 218.938,25.062 C220.366,25.062 221.668,25.44 222.802,25.986 C223.39,26.28 223.684,26.448 224.062,26.448 C224.734,26.448 224.944,25.944 224.944,25.062 L224.944,22.122 C224.944,21.282 224.734,20.904 223.768,20.274 C222.802,19.644 220.912,18.762 217.972,18.762 C211.168,18.762 207.64,22.668 207.64,29.262 C207.64,35.856 211.168,39.762 217.972,39.762 Z M236.956,39.762 C230.068,39.762 226.96,35.394 226.96,29.262 C226.96,23.13 230.446,18.762 236.83,18.762 C242.038,18.762 245.692,21.198 245.692,27.456 C245.692,28.338 245.65,29.682 245.482,30.732 L234.436,30.732 C234.436,33.378 235.948,34.008 239.434,34.008 C240.568,34.008 241.492,33.882 242.248,33.714 C243.382,33.462 244.096,33.126 244.558,33.126 C245.062,33.126 245.398,33.504 245.398,34.26 L245.398,35.478 C245.398,36.612 245.23,37.242 244.894,37.578 C243.592,38.88 240.316,39.762 236.956,39.762 Z M234.394,27.162 L239.098,27.162 C239.14,26.742 239.182,26.364 239.182,26.028 C239.182,24.222 238.3,23.508 236.872,23.508 C235.192,23.508 234.394,24.474 234.394,27.162 Z" id="logo__copy" fill="#000000"></path>
            <rect id="logo__square" fill="#E24E38" x="0" y="0" width="49" height="49" rx="1"></rect>
            <mask id="mask-2" fill="black">
                <use xlink:href="#path-1"></use>
            </mask>
            <use id="logo__r" fill="#FFFFFF" xlink:href="#path-1"></use>
        </g>
    </g>
</svg>