<svg xmlns="http://www.w3.org/2000/svg" xmlns:xlink="http://www.w3.org/1999/xlink" version="1.1" x="0px" y="0px" viewBox="0 0 256 320" enable-background="new 0 0 256 256" xml:space="preserve"><g><path d="M128.064,14.013c-53.523,0-96.912,43.389-96.912,96.912c0,9.141,1.293,17.974,3.658,26.358   c2.437,10.559,6.385,22.378,12.785,34.564c24.516,46.684,67.309,65.171,80.469,70.267v0c13.16-5.096,55.952-23.583,80.469-70.267   c6.4-12.187,10.349-24.006,12.785-34.565c2.365-8.383,3.658-17.217,3.658-26.357C224.976,57.402,181.587,14.013,128.064,14.013z    M128.063,162.2c-34.42,0-62.323-27.903-62.323-62.323s27.903-62.323,62.323-62.323c34.42,0,62.323,27.903,62.323,62.323   S162.484,162.2,128.063,162.2z"/></g><g><path d="M121.372,99.701c4.078,0.817,8.156,1.634,12.234,2.45c-4.729-6.245-9.459-12.49-14.188-18.735   c3.371,0.586,6.742,1.173,10.114,1.759l-17.655-22.409L94.22,85.175c3.371-0.586,6.743-1.173,10.114-1.759   c-4.729,6.245-9.459,12.49-14.188,18.735c4.078-0.817,8.156-1.634,12.234-2.45c-5.384,7.868-10.768,15.735-16.152,23.603   c7.646-2.055,15.292-4.109,22.938-6.164v17.006h5.421V117.14c7.646,2.055,15.292,4.109,22.938,6.164   C132.14,115.436,126.756,107.569,121.372,99.701z"/><path d="M168.156,124.767H139.14c-0.893,0-1.617,0.724-1.617,1.617S138.248,128,139.14,128h2.753v6.146h1.248V128   h21.222v6.146h1.248V128h2.545c0.893,0,1.616-0.724,1.616-1.617S169.049,124.767,168.156,124.767z"/></g></svg>