<svg width="54" height="38" viewBox="0 0 54 38" xmlns="http://www.w3.org/2000/svg">
<g id="Break &#38; Enter" >
<path id="Vector" d="M44.5412 36.8518H49.9412C50.4512 36.8518 50.8712 36.3918 50.8712 35.8318V25.9118L52.1112 26.8818C52.2712 27.0118 52.4612 27.0818 52.6712 27.0818C52.9712 27.0818 53.2512 26.9318 53.4412 26.6518C53.7412 26.2218 53.6512 25.5618 53.2312 25.2318L49.1412 22.0218V18.7618C49.1412 18.2018 48.7212 17.7418 48.2112 17.7418C47.7012 17.7418 47.2812 18.2018 47.2812 18.7618V20.5218L43.1012 17.2618C42.7712 17.0118 42.3312 17.0118 42.0012 17.2618L31.8412 25.2218C31.4212 25.5518 31.3312 26.2118 31.6312 26.6718C31.9312 27.1318 32.5212 27.2318 32.9412 26.9018L34.1812 25.9318V35.7818C34.1812 36.3418 34.6012 36.8018 35.1112 36.8018H40.6912" />
<path id="Vector_2" d="M52.0812 36.7318H6.51122C6.22956 36.7318 6.00122 36.9602 6.00122 37.2418C6.00122 37.5235 6.22956 37.7518 6.51122 37.7518H52.0812C52.3629 37.7518 52.5912 37.5235 52.5912 37.2418C52.5912 36.9602 52.3629 36.7318 52.0812 36.7318Z" />
<path id="Vector_3" d="M12.8511 13.1419L12.8511 35.6319C12.8511 36.3056 13.3973 36.8519 14.0711 36.8519C14.7449 36.8519 15.2911 36.3056 15.2911 35.6319L15.2911 13.1419C15.2911 12.4681 14.7449 11.9219 14.0711 11.9219C13.3973 11.9219 12.8511 12.4681 12.8511 13.1419Z" />
<g id="Group">
<path id="Vector_4" d="M7.58119 10.4519C8.77119 7.52185 8.25119 5.56185 12.1812 5.25185C12.1812 5.25185 4.77119 0.361855 1.49119 7.92185C-1.78881 15.4919 6.39119 13.3819 7.58119 10.4519Z" />
<path id="Vector_5" d="M14.5813 15.1519L14.6813 15.3819L16.0913 18.6719C16.3313 19.2419 16.8913 19.5819 17.4713 19.5819C17.6713 19.5819 17.8713 19.5419 18.0613 19.4619C18.8213 19.1319 19.1813 18.2519 18.8513 17.4919L15.8013 10.3519C15.5113 9.66185 14.7513 9.29185 14.0313 9.49185L12.2913 9.96185C12.2213 9.70185 12.1913 9.45185 12.1913 9.22185C12.1913 8.79185 12.2913 8.42185 12.3913 8.17185C12.4413 8.04185 12.4913 7.94185 12.5213 7.88185C12.5413 7.85185 12.5513 7.83185 12.5613 7.82185C12.6413 7.70185 12.6913 7.57185 12.7113 7.44185C13.0213 6.74185 13.0413 5.95185 12.6713 5.43185L12.1113 5.47185C9.43126 5.68185 9.15126 6.62185 8.60126 8.48185C8.44126 9.03185 8.25126 9.66185 7.97126 10.3419C7.55126 11.3919 6.38126 12.3519 5.04126 12.8919C5.19126 13.3119 5.46126 13.6419 5.78126 13.8919C5.78126 13.8919 5.78126 13.9119 5.79126 13.9119L8.86126 18.3319L8.47126 24.1819C8.42126 25.0119 9.04126 25.7219 9.87126 25.7819C9.90126 25.7819 9.94126 25.7819 9.97126 25.7819C10.5913 25.7819 11.1313 25.3919 11.3613 24.8419L11.9513 18.3719C11.9913 17.9619 11.9013 17.5519 11.7113 17.1919L11.6013 16.9919L9.42126 13.8519C10.3813 13.2819 10.6113 12.9719 12.0213 12.8819C12.8513 12.8319 12.8813 12.9619 13.3713 13.1319C13.8013 13.2819 14.0713 14.0119 14.4013 14.7519" />
<path id="Vector_6" d="M15.2312 5.83185C16.75 5.83185 17.9812 4.60063 17.9812 3.08185C17.9812 1.56307 16.75 0.331848 15.2312 0.331848C13.7124 0.331848 12.4812 1.56307 12.4812 3.08185C12.4812 4.60063 13.7124 5.83185 15.2312 5.83185Z" />
</g>
</g>
</svg>
