<svg width="40" height="28" viewBox="0 0 40 28" xmlns="http://www.w3.org/2000/svg">
<g id="Disturbance" >
<path id="Vector" d="M26.4008 9.39984C25.8922 8.6941 24.8832 8.52997 24.1244 9.03056C23.4073 9.53114 23.2405 10.5241 23.7492 11.2709C24.4246 12.1818 24.7581 13.2568 24.7581 14.3811C24.7581 15.5054 24.4246 16.5804 23.7492 17.4913C23.2405 18.197 23.4156 19.19 24.1244 19.7316C24.4163 19.9368 24.7581 20.0188 25.05 20.0188C25.5586 20.0188 26.059 19.7726 26.3591 19.3541C27.4515 17.8195 28.0018 16.1208 28.0018 14.3401C28.0018 12.5593 27.4515 10.8606 26.4008 9.40805V9.39984Z"/>
<path id="Vector_2" d="M30.6117 5.09151C30.0197 4.42679 29.0107 4.34473 28.3353 4.88635C27.6598 5.469 27.5765 6.46196 28.1268 7.12668C29.8529 9.15364 30.7785 11.6812 30.7785 14.34C30.7785 16.9989 29.8529 19.5182 28.1268 21.5534C27.5348 22.2181 27.6598 23.2111 28.3353 23.7937C28.6271 24.0399 29.0107 24.163 29.3859 24.163C29.8529 24.163 30.3115 23.9579 30.645 23.5804C32.8381 20.9708 34.0555 17.6964 34.0555 14.34C34.0555 10.9837 32.7881 7.66829 30.6034 5.09971L30.6117 5.09151Z"/>
<path id="Vector_3" d="M34.8227 0.865256C34.2306 0.200543 33.2217 0.159512 32.5462 0.742161C31.8708 1.32481 31.8291 2.31778 32.4212 2.98249C35.2396 6.13372 36.7989 10.1548 36.7989 14.3401C36.7989 18.5253 35.2396 22.5464 32.4212 25.6976C31.8291 26.3623 31.8708 27.3553 32.5462 27.9379C32.8381 28.1841 33.2217 28.3565 33.5969 28.3565C34.0639 28.3565 34.4808 28.1923 34.8143 27.8148C38.1414 24.0892 39.9926 19.3213 39.9926 14.3483C39.9926 9.37522 38.1414 4.60734 34.8143 0.881669L34.8227 0.865256Z"/>
<path id="Vector_4" d="M0.000976562 9.64603V19.0095C0.000976562 19.7152 0.593013 20.2978 1.31013 20.2978H7.03871V8.36584H1.31013C0.593013 8.36584 0.000976562 8.94029 0.000976562 9.64603Z"/>
<path id="Vector_5" d="M18.2708 1.69409L9.84888 7.78319V20.9215L18.2291 26.9696C19.0713 27.5933 20.2887 26.9696 20.2887 25.9356V2.72809C20.3304 1.69409 19.113 1.11144 18.2708 1.69409Z"/>
</g>
</svg>
