<svg width="40" height="39" viewBox="0 0 40 39" xmlns="http://www.w3.org/2000/svg">
<g id="Loitering">
<g id="Group">
<path id="Vector" d="M18.3674 8.24771C18.3674 8.24771 18.4312 8.24771 18.4631 8.24771C18.4949 8.24771 18.5268 8.24771 18.5587 8.24771C20.5348 8.13559 22.1045 6.50187 22.1045 4.49176C22.1045 2.48164 20.5427 0.863936 18.5666 0.759827C18.5666 0.759827 18.5029 0.759827 18.471 0.759827C18.4392 0.759827 18.4073 0.759827 18.3754 0.759827C16.3993 0.871945 14.8296 2.50566 14.8296 4.51578C14.8296 6.5259 16.3993 8.15962 18.3754 8.26373L18.3674 8.24771Z"/>
<path id="Vector_2" d="M27.7062 21.3575L22.8536 9.6572C22.8058 9.54508 22.742 9.44898 22.6703 9.36089C22.6384 9.32885 22.6145 9.28881 22.5827 9.25678H22.5667C22.4153 9.10462 22.2161 8.9925 22.001 8.94445V8.91241H21.6663H15.3157H14.9731V8.94445C14.758 8.9925 14.5667 9.10462 14.4153 9.25678H14.3994C14.3994 9.25678 14.3436 9.32885 14.3118 9.36089C14.24 9.44898 14.1763 9.54508 14.1285 9.6572L9.2759 21.3575C9.00498 22.0302 9.39542 22.767 10.1524 23.0073C10.9094 23.2475 11.746 22.9031 12.0169 22.2304L15.0608 15.3031L14.503 22.775L11.7301 36.8939C11.5149 37.7588 11.7221 38.5836 12.997 38.7278C14.2719 38.8719 15.491 38.2953 15.7062 37.4304L18.4791 25.1936L21.252 37.4304C21.4671 38.2953 22.6863 38.88 23.9612 38.7278C25.2361 38.5836 25.4432 37.7588 25.2281 36.8939L22.4552 22.775L21.8974 15.3031L24.9412 22.2304C25.2122 22.9031 26.0488 23.2475 26.8058 23.0073C27.5628 22.767 27.9612 22.0302 27.6823 21.3575H27.7062Z"/>
</g>
<g id="Group_2">
<path id="Vector_3" d="M33.9133 10.3459C33.9133 10.3459 33.9532 10.3459 33.9771 10.3459C34.001 10.3459 34.0169 10.3459 34.0408 10.3459C35.3157 10.2738 36.3277 9.21674 36.3277 7.91937C36.3277 6.622 35.3157 5.56489 34.0408 5.50082C34.0408 5.50082 34.001 5.50082 33.9771 5.50082C33.9532 5.50082 33.9372 5.50082 33.9133 5.50082C32.6384 5.5729 31.6265 6.63001 31.6265 7.92738C31.6265 9.22474 32.6384 10.2819 33.9133 10.3459Z"/>
<path id="Vector_4" d="M39.9452 18.8188L36.8137 11.2589C36.7819 11.1868 36.742 11.1227 36.6942 11.0667C36.6783 11.0426 36.6623 11.0186 36.6384 11.0026H36.6305C36.5269 10.9065 36.4074 10.8344 36.2639 10.8024V10.7864H36.0488H31.9452H31.7221V10.8024C31.5866 10.8344 31.4591 10.9065 31.3635 11.0026H31.3556C31.3556 11.0026 31.3157 11.0507 31.2998 11.0667C31.252 11.1227 31.2121 11.1868 31.1803 11.2589L28.0488 18.8188C27.8735 19.2513 28.1285 19.7318 28.6145 19.884C29.1085 20.0361 29.6424 19.8119 29.8177 19.3794L31.7858 14.9027L31.4273 19.7318L29.6344 28.8534C29.491 29.414 29.6344 29.9425 30.4552 30.0386C31.2838 30.1347 32.0647 29.7583 32.2081 29.1978L34.001 21.2854L35.7938 29.1978C35.9372 29.7583 36.7181 30.1347 37.5468 30.0386C38.3755 29.9425 38.503 29.414 38.3675 28.8534L36.5747 19.7318L36.2161 14.9027L38.1842 19.3794C38.3595 19.8119 38.9014 20.0361 39.3874 19.884C39.8815 19.7318 40.1285 19.2513 39.9532 18.8188H39.9452Z"/>
</g>
<g id="Group_3">
<path id="Vector_5" d="M3.5546 6.94234C3.5546 6.94234 3.5785 6.94234 3.59444 6.94234C3.61038 6.94234 3.61835 6.94234 3.63428 6.94234C4.39922 6.9023 5.0048 6.26162 5.0048 5.4848C5.0048 4.70799 4.39922 4.07532 3.63428 4.03528C3.63428 4.03528 3.61038 4.03528 3.59444 4.03528C3.5785 4.03528 3.57054 4.03528 3.5546 4.03528C2.78966 4.07532 2.18408 4.70799 2.18408 5.4848C2.18408 6.26162 2.78966 6.89429 3.5546 6.93433V6.94234Z"/>
<path id="Vector_6" d="M7.17225 12.0197L5.29177 7.4869C5.27584 7.44686 5.25193 7.40681 5.22006 7.37478C5.21209 7.35876 5.19616 7.35076 5.18819 7.33474C5.12444 7.27868 5.05273 7.23063 4.97305 7.21461L4.83759 7.2066H2.37544H2.23998C2.15233 7.23864 2.08062 7.27868 2.02484 7.34275C2.02484 7.34275 2.00094 7.36677 1.99297 7.38279C1.9611 7.41482 1.93719 7.45487 1.92125 7.49491L0.0328088 12.0197C-0.0707768 12.2759 0.0806176 12.5642 0.375438 12.6603C0.670259 12.7564 0.988984 12.6203 1.10054 12.356L2.27982 9.6732L2.06468 12.5642L0.988984 18.034C0.901335 18.3704 0.988984 18.6907 1.48301 18.7468C1.97703 18.8028 2.44715 18.5786 2.5348 18.2422L3.6105 13.5012L4.6862 18.2422C4.77384 18.5786 5.24396 18.8028 5.73799 18.7468C6.23201 18.6907 6.31169 18.3704 6.23201 18.034L5.15631 12.5642L4.94117 9.6732L6.12046 12.356C6.22404 12.6123 6.55074 12.7484 6.84556 12.6603C7.14038 12.5642 7.29177 12.2839 7.18819 12.0197H7.17225Z"/>
</g>
</g>
</svg>
