<svg width="49" height="44" viewBox="0 0 49 44"  xmlns="http://www.w3.org/2000/svg">
<g id="Property Damage" >
<path id="Vector" d="M34.9812 35.8918C34.9212 35.6518 34.7312 35.3918 34.4212 35.1018H34.3812C33.5912 36.3718 32.7812 37.5818 31.9612 38.7318L31.9812 38.7918C32.6012 38.8418 33.0112 38.8518 33.2012 38.7918H33.2412C33.7712 38.6418 34.2212 38.3218 34.5912 37.8218C34.9612 37.0918 35.1012 36.5618 35.0112 36.2218L34.9912 35.8818L34.9812 35.8918Z" />
<path id="Vector_2" d="M33.7512 34.7418C33.2112 34.4618 32.5412 34.4318 31.7212 34.6418L31.6612 34.6618C31.3612 34.7418 31.0212 35.0818 30.6412 35.6918C30.4112 36.1718 30.3812 36.7518 30.5512 37.4418C30.5512 37.4718 30.5812 37.4918 30.5912 37.5218L30.7512 37.5918L30.8512 37.7918L30.8912 37.9318C30.8912 37.9318 30.8712 37.9918 30.8412 38.0318C30.9612 38.1818 31.1012 38.3318 31.2712 38.4518H31.3112C32.0012 37.5218 32.8112 36.3118 33.7512 34.7918V34.7518V34.7418Z" />
<path id="Vector_3" d="M36.7712 34.4418C36.8312 34.4318 37.1712 34.0718 37.8112 33.3718V33.3318C36.8112 32.8718 36.1512 32.6818 35.8212 32.7618L35.4812 32.8118C35.3612 32.8418 35.2512 32.9418 35.1412 33.1018C35.2212 33.1318 35.2812 33.1718 35.3112 33.2618L35.3312 33.3418C35.3612 33.4718 35.2312 33.7418 34.9412 34.1718C35.1712 34.3018 35.7712 34.4018 36.7512 34.4518H36.7612L36.7712 34.4418Z" />
<path id="Vector_4" d="M37.0411 35.1618C36.6311 35.6018 36.3911 36.1018 36.3311 36.6618C36.3211 36.8818 36.3311 37.0618 36.3611 37.1918C36.4411 37.4918 36.5611 37.6818 36.7411 37.7518C37.2711 37.8318 37.8911 37.7818 38.5811 37.6018L38.9111 37.5118C39.8811 37.2618 40.5011 36.9718 40.7811 36.6318L40.7611 36.5518C40.7311 36.4318 40.4811 36.2318 40.0311 35.9618C39.3211 35.5918 38.4611 35.3318 37.4411 35.1918C37.2211 35.1518 37.0811 35.1418 37.0311 35.1518L37.0411 35.1618Z" />
<path id="Vector_5" d="M48.1212 18.2918L39.2312 11.3218V4.23182C39.2312 3.01182 38.3212 2.02182 37.2012 2.02182C36.0812 2.02182 35.1712 3.02182 35.1712 4.23182V8.05182L26.0612 0.971819C25.3512 0.421819 24.3812 0.421819 23.6712 0.971819L1.57118 18.2918C0.661182 19.0118 0.451182 20.4518 1.11118 21.4418C1.77118 22.4418 3.04118 22.6618 3.96118 21.9418L6.65118 19.8418V41.2618C6.65118 42.4818 7.56118 43.4718 8.68118 43.4718H20.8312L29.2212 43.5818H40.9612C42.0812 43.5818 42.9912 42.5818 42.9912 41.3718V34.4818C42.9912 34.4818 42.9512 34.4318 42.9212 34.3918C42.8512 34.3218 42.7912 34.2818 42.7412 34.3018L42.7112 34.3618H42.7412L42.7712 34.4918L42.7212 34.5718L42.7512 34.5918L42.7712 34.6818L42.7112 34.7018L42.6612 34.5018L42.6012 34.3518L42.6312 34.3018V34.2718L42.4512 34.1318L42.4812 34.0718H42.5212H42.5512H42.5712L42.5512 34.0018C42.3912 33.8218 42.1212 33.6118 41.7212 33.3618L41.5812 33.0918C41.5812 33.0918 41.6312 33.0118 41.6012 32.9018L41.3612 32.7718L41.3012 32.8318L41.3312 32.8518L41.3612 32.9618L41.3312 33.0118L41.1912 32.7218V32.5818L41.1712 32.5618H41.1312C41.1312 32.5618 41.0612 32.7018 41.0112 32.9018V32.9218L41.1312 33.0818L41.1112 33.1118H41.0912L41.0412 33.0818H41.0112L41.0412 33.2018L41.0112 33.2618L40.9812 33.2418V33.2218L40.9612 33.0618L40.9312 33.0418H40.9112L40.8112 33.3918H40.7912L40.7712 33.3818L40.7912 33.4518H40.7712L40.6912 33.4318V33.4618V33.4818H40.7612L40.7712 33.5318L40.6912 33.7618C40.6712 33.6918 40.6512 33.6518 40.6212 33.6618L40.5612 33.7718C40.5612 33.7718 40.6012 33.8118 40.6612 33.8118L40.7212 33.7718L40.8012 34.0718L40.7712 34.3818L40.8712 34.6818L40.8912 34.7618L40.9512 34.8118L41.0112 35.1718L41.0812 35.3418L41.0612 35.3718H41.0412L40.9512 35.3118L40.8812 35.0218L40.8212 34.9718L40.7412 34.6718L40.6812 34.6918L40.7212 34.8618H40.6812L40.6212 34.6318L40.6612 34.5318H40.6312L40.5212 34.1018V34.0718V34.0518L40.4112 33.9718C40.3312 33.9918 40.2612 33.9718 40.1812 33.8918C40.1612 33.7618 40.2612 33.4618 40.4912 33.0018C40.6712 32.4818 40.7412 32.0518 40.7012 31.7218C40.7312 31.7218 40.7312 31.6818 40.7212 31.6218H40.7012V31.5918C40.7312 31.4218 40.7412 31.2018 40.7212 30.9418C40.7512 30.8318 40.8012 30.7618 40.8812 30.7418L41.0012 30.6618L41.1312 30.6318C41.1312 30.6318 41.2312 30.6518 41.3212 30.6318L41.4112 30.7018L41.4712 30.9118L41.4412 30.9918L41.4912 31.1918L41.4212 31.3918L41.4612 31.5718L41.5412 31.6218V31.7418L41.5812 31.8718C41.7712 32.0818 41.8912 32.2518 41.9212 32.4018C42.0012 32.5318 42.1312 32.7018 42.3312 32.9218C42.4112 32.9818 42.5412 33.1518 42.7212 33.4418C42.8412 33.5118 42.9412 33.6018 43.0312 33.6918V19.7918L45.7212 21.8918C46.0812 22.1718 46.4812 22.3318 46.9412 22.3318C47.6012 22.3318 48.2112 22.0018 48.6212 21.3918C49.2812 20.4518 49.0812 19.0118 48.1612 18.2918H48.1212ZM32.6812 18.5918H37.7212V23.9718H32.6812V18.5918ZM32.6812 24.1618H37.7212V29.5418H32.6812V24.1618ZM27.4412 18.5918H32.4812V23.9718H27.4412V18.5918ZM27.4412 24.1618H32.4812V29.5418H27.4412V24.1618ZM17.4312 18.5918H22.4712V23.9718H17.4312V18.5918ZM17.4312 24.1618H22.4712V24.3418L21.5012 25.5218L20.9312 24.7918L21.0712 24.3018C21.0712 24.2418 21.0412 24.1818 20.9812 24.1818C20.9212 24.1818 20.8612 24.2118 20.8612 24.2718L20.6512 24.4618L19.2012 25.2518L18.2612 24.3918L17.4212 26.2418V24.1618H17.4312ZM21.9812 27.2218L21.8512 26.5918L21.9312 26.4118L22.4712 26.6418V27.5718L21.9812 27.2118V27.2218ZM22.4712 27.8518V29.1218L22.1912 28.9318L21.6712 28.0418L21.7212 27.9118L22.4512 27.8318H22.4712V27.8518ZM22.2112 26.3118L22.4712 26.2718V26.4218L22.2112 26.3118ZM21.7712 26.1718L21.8412 25.4818L22.4812 24.7018V26.0718L21.7812 26.1818L21.7712 26.1718ZM15.4112 18.6018L15.1812 18.9618L14.8612 18.9418L14.6212 19.4518L14.0712 19.3018L13.9212 19.1318L13.7012 18.5918H15.4212L15.4112 18.6018ZM12.2012 18.6018H13.5412L13.5612 18.6418L13.0312 19.8718L12.2012 19.8218V18.6018ZM17.2412 29.5518H12.2012V24.1718H17.2412V29.5518ZM17.2412 23.9818H12.2012V19.9618L13.4012 20.0318L13.5712 20.4218L12.5112 20.7718C12.5112 20.7718 12.4612 20.8218 12.4712 20.8518C12.4712 20.8618 12.4812 20.8718 12.4912 20.8818C12.5112 20.9018 12.5312 20.9018 12.5612 20.9018L13.8212 20.4918L14.3812 20.4618L14.0612 20.9318C14.0612 20.9318 14.0512 20.9618 14.0512 20.9818L14.3412 22.5818C14.3412 22.5818 14.3812 22.6418 14.4212 22.6318C14.4612 22.6318 14.4812 22.5918 14.4712 22.5518L14.3112 21.6718L14.4812 21.0718L14.5612 21.0418L14.9112 21.3218L14.9312 21.4318C14.9312 21.4318 14.9412 21.4618 14.9512 21.4718C14.9612 21.4818 14.9912 21.4918 15.0112 21.4918C15.0512 21.4918 15.0712 21.4518 15.0712 21.4118L14.9912 20.8518L15.2112 20.5318L15.3212 20.4918L15.3512 20.7918C15.3512 20.7918 15.4012 20.8418 15.4412 20.8318C15.4812 20.8218 15.4912 20.7818 15.4812 20.7418L15.5012 20.5618L16.5812 21.3818C16.5812 21.3818 16.6512 21.4018 16.6712 21.3718C16.6912 21.3418 16.6712 21.3018 16.6512 21.2818L15.3712 20.3118L15.7012 20.0418L16.6812 19.9518C16.6812 19.9518 16.7512 19.9118 16.7412 19.8818C16.7412 19.8418 16.7012 19.8118 16.6712 19.8218L15.5312 19.9118L15.6112 19.3518L16.1812 18.9218C16.1812 18.9218 16.2212 18.8618 16.1912 18.8318C16.1712 18.8018 16.1312 18.7918 16.1012 18.8218L15.7212 19.1118L15.5812 19.0118L15.5012 18.8118L15.6212 18.6118H17.2912V23.9918L17.2412 23.9818ZM17.4412 26.4318L18.2812 27.6818L17.4412 29.2018V26.4318ZM17.7612 29.5618L19.2812 28.1618L19.9312 28.4118L19.3712 29.5618H17.7612ZM19.6212 29.5618L20.2912 28.2018L20.8812 27.5118L21.0612 28.4118C21.0612 28.4118 21.0912 28.4618 21.1012 28.4818L22.4712 29.4018V29.5618H19.6112H19.6212ZM40.2612 35.3818C40.9512 35.7718 41.3312 36.1418 41.4212 36.4818C41.5512 37.0018 41.0612 37.4718 39.9512 37.8918L39.1112 38.1418L38.7812 38.2318C38.1912 38.3818 37.5612 38.4518 36.9012 38.4518C36.5212 38.4118 36.2312 38.2618 36.0312 38.0218C35.8912 37.7918 35.7912 37.5818 35.7412 37.3718C35.5612 36.6718 35.7412 35.9218 36.2612 35.1118V35.0918L35.1812 34.9518C35.4212 35.2318 35.5712 35.4918 35.6412 35.7418C35.8312 36.5018 35.6512 37.3718 35.0912 38.3518C34.5712 38.9518 34.0212 39.3318 33.4412 39.4818L33.3412 39.5118C33.2612 39.5318 33.1612 39.5518 33.0512 39.5518C33.0712 39.5618 33.0912 39.5718 33.1112 39.5818L33.1712 39.8118C33.1312 39.9618 33.0512 40.1218 32.9212 40.2718L32.8112 40.3018C32.5512 40.1818 32.1212 40.0918 31.5212 40.0318L31.1912 39.9618C31.1612 40.0218 31.1312 40.0718 31.0912 40.1418C31.0512 40.1918 31.0012 40.2318 30.9312 40.2518L30.8312 40.2818C30.6612 40.2818 30.5612 40.2318 30.5312 40.1018L30.5112 40.0218C30.5112 40.0218 30.5112 39.9418 30.5112 39.8818C30.4712 39.8818 30.4512 39.8818 30.4112 39.8818C30.3012 39.8618 30.1012 39.8618 29.8112 39.8818L29.5612 39.9418L29.4812 39.9118L29.1312 40.0018L29.1012 39.9818V40.0118L28.9712 40.0418L28.8612 39.9918L28.7212 40.0318L28.6412 40.1218L28.5512 40.1418L28.5212 40.1218L28.5012 40.1518L27.2112 40.4818L27.1512 40.5418H27.1312C26.5312 40.7518 26.1512 40.9018 25.9812 41.0118H25.8312L25.7112 41.0518C25.6012 41.1318 25.3012 41.2418 24.8212 41.3818L24.0412 41.8218V41.8518L23.7012 41.9318C23.3412 42.1418 23.0812 42.2618 22.9312 42.3018H22.9112C22.7812 42.3418 22.5912 42.2818 22.3612 42.1318L22.3812 42.1018V42.0818L22.3312 42.0218L22.6312 41.5218C22.6712 41.4618 22.8812 41.2718 23.2812 40.9618C23.2812 40.9318 23.4412 40.8318 23.7712 40.6618C24.0312 40.5518 24.2912 40.3518 24.5512 40.0418C24.8812 39.7618 25.0712 39.6118 25.1312 39.5918C25.5612 39.3418 25.8812 39.0918 26.0812 38.8318C26.2612 38.6718 26.4712 38.4518 26.7112 38.1718L27.3012 37.6518C27.5912 37.4718 27.9512 36.9618 28.3812 36.1118L28.4412 35.6718L28.3912 35.4918C28.3912 35.4918 28.3112 35.4318 28.1812 35.4418L27.7112 35.5618C27.4612 35.6218 27.1412 35.8218 26.7412 36.1518L25.9912 36.6418C25.5212 37.1018 25.0912 37.5518 24.7012 37.9918C24.4712 38.2518 24.3612 38.4018 24.3612 38.4218C24.0612 38.8818 23.8612 39.1218 23.7512 39.1518C23.7512 39.1818 23.7212 39.2118 23.6512 39.2318L23.4212 39.2918C23.2412 39.3318 23.0912 39.2918 22.9612 39.1318L22.9112 38.9218C22.9612 38.8518 22.9812 38.7818 22.9812 38.7118C23.0112 38.7118 23.0212 38.6318 23.0012 38.5118L23.0312 38.4518L22.9012 37.9618C22.6912 37.8518 22.5812 37.7718 22.5712 37.7318C22.6312 37.4318 22.8012 37.2418 23.0712 37.1718C23.3012 37.1118 23.5212 37.1718 23.7112 37.3318L23.7812 37.6118H23.8312L23.9912 37.4518C24.2012 37.1018 24.5512 36.7418 25.0412 36.3918C25.0212 36.3318 25.2312 36.1718 25.6712 35.9318C25.7712 35.8218 25.9312 35.7218 26.1412 35.6118C26.6212 35.2018 26.9312 34.9818 27.0912 34.9418H27.1312L27.8712 34.6918L28.5712 34.5118C28.7412 34.5618 28.9212 34.6818 29.1112 34.8918L29.1312 34.9818C29.2412 35.4018 29.2012 35.8018 29.0112 36.1818C29.0212 36.2318 28.9912 36.3018 28.9212 36.4018C28.9412 36.4918 28.8512 36.6218 28.6312 36.8018C28.6512 36.8618 28.5312 37.0718 28.2812 37.4118L27.9312 37.8018L27.3012 38.4418C27.1412 38.7118 26.9612 38.9118 26.7612 39.0518L25.9712 39.8318L25.9412 39.8118H25.9212L25.8912 39.9018V39.9318C25.9212 40.0118 26.2112 40.0018 26.7812 39.9018L27.0912 39.7518L28.6812 39.3418L28.7512 39.2518L29.5712 39.0418L29.9412 39.0218L30.1512 38.9718L30.1312 38.8718L29.6712 38.5218L29.6412 38.5018L29.5012 37.9418C29.5212 37.8818 29.5912 37.7718 29.7112 37.6118L29.9012 37.5618C29.9012 37.5618 29.8912 37.5318 29.8812 37.5118C29.5312 36.1418 29.9812 35.0118 31.2312 34.1218L32.0712 33.9118C32.6312 33.7718 33.3112 33.8618 34.1212 34.1818L34.1812 34.1618C34.1812 34.1618 34.2012 34.1318 34.2112 34.1118C34.1512 33.6318 34.3912 33.0518 34.9512 32.3718L35.1612 32.2618C35.8812 32.1318 36.3112 32.1118 36.4412 32.1918C36.8312 32.2618 37.4712 32.5018 38.3612 32.9118C38.4612 33.0118 38.5312 33.1218 38.5612 33.2418C38.6212 33.4818 38.3012 33.9218 37.6012 34.5618V34.5918C37.6012 34.5918 37.8212 34.6518 38.1412 34.7018C38.8912 34.8518 39.6012 35.0818 40.2712 35.3918L40.2612 35.3818Z" />
</g>
</svg>
