<svg width="54" height="21" viewBox="0 0 54 21"  xmlns="http://www.w3.org/2000/svg">
<g id="Stolen Vehicle" >
<path id="Vector" d="M44.3312 14.8219C43.9612 14.8219 43.6212 15.0419 43.4712 15.3819C43.3212 15.7219 43.4012 16.1219 43.6612 16.3919C43.9212 16.6619 44.3112 16.7419 44.6612 16.6119C45.0112 16.4819 45.2412 16.1519 45.2512 15.7719C45.2512 15.5219 45.1612 15.2819 44.9912 15.1019C44.8212 14.9219 44.5812 14.8219 44.3312 14.8219Z" />
<path id="Vector_2" d="M44.3313 10.9718C43.0613 10.9718 41.8513 11.4718 40.9513 12.3718C40.0513 13.2618 39.5513 14.4818 39.5513 15.7518C39.5513 17.0218 40.0513 18.2318 40.9413 19.1318C41.8313 20.0318 43.0513 20.5418 44.3113 20.5418C45.5813 20.5418 46.7913 20.0518 47.6913 19.1618C48.5913 18.2718 49.1013 17.0618 49.1113 15.7918C49.1113 14.5218 48.6213 13.2918 47.7213 12.3918C46.8213 11.4918 45.6013 10.9818 44.3313 10.9818V10.9718ZM44.3313 17.7818C43.7913 17.7818 43.2713 17.5718 42.8913 17.1918C42.5113 16.8118 42.2913 16.2918 42.3013 15.7518C42.3013 15.2118 42.5213 14.6918 42.9013 14.3118C43.2813 13.9318 43.8013 13.7218 44.3413 13.7218C44.8813 13.7218 45.4013 13.9418 45.7713 14.3318C46.1513 14.7218 46.3613 15.2418 46.3513 15.7818C46.3513 16.3118 46.1313 16.8218 45.7513 17.1918C45.3713 17.5618 44.8613 17.7718 44.3313 17.7818Z" />
<path id="Vector_3" d="M10.6511 10.9718C9.3811 10.9718 8.1711 11.4818 7.2811 12.3718C6.3911 13.2718 5.8811 14.4818 5.8811 15.7518C5.8811 17.0218 6.3811 18.2318 7.2711 19.1318C8.1611 20.0318 9.3811 20.5318 10.6411 20.5418C11.9111 20.5418 13.1211 20.0518 14.0211 19.1518C14.9211 18.2618 15.4311 17.0518 15.4411 15.7818C15.4411 14.5118 14.9411 13.2818 14.0411 12.3818C13.1411 11.4818 11.9211 10.9718 10.6411 10.9718H10.6511ZM10.6511 17.7818C10.1111 17.7818 9.5911 17.5618 9.2211 17.1818C8.8411 16.8018 8.6311 16.2818 8.6311 15.7418C8.6311 15.2018 8.8511 14.6918 9.2411 14.3118C9.6211 13.9318 10.1411 13.7218 10.6811 13.7318C11.2211 13.7318 11.7311 13.9618 12.1111 14.3418C12.4911 14.7318 12.6911 15.2518 12.6911 15.7818C12.6911 16.3118 12.4711 16.8218 12.0811 17.2018C11.7011 17.5718 11.1911 17.7818 10.6511 17.7818Z" />
<path id="Vector_4" d="M10.6512 14.8219C10.2812 14.8219 9.94123 15.0519 9.80123 15.3919C9.66123 15.7319 9.73123 16.1319 9.99123 16.3919C10.2512 16.6619 10.6412 16.7419 10.9912 16.6119C11.3412 16.4719 11.5712 16.1519 11.5812 15.7819C11.5812 15.5319 11.4912 15.2919 11.3212 15.1119C11.1412 14.9319 10.9012 14.8319 10.6512 14.8319V14.8219Z" />
<path id="Vector_5" d="M52.7411 10.7419C49.2111 8.39185 44.8311 7.12185 39.3011 6.85185L31.8011 1.60185C31.1811 1.17185 30.4711 0.881854 29.7211 0.761854C28.1011 0.531854 26.4611 0.391854 24.8211 0.361854C24.7911 0.361854 24.7611 0.361854 24.7311 0.361854H24.6611C22.0811 0.281854 19.5011 0.411854 16.9511 0.761854C16.2511 0.871854 15.5811 1.13185 14.9911 1.52185L8.51109 5.81185H4.53109C3.99109 5.81185 3.47109 6.03185 3.09108 6.41185C2.71108 6.79185 2.49108 7.31185 2.49108 7.85185V8.69185C2.49108 8.92185 2.41108 9.14185 2.25108 9.32185L1.26108 10.4219C0.861085 10.8619 0.671085 11.4519 0.731085 12.0419L1.20108 15.7819C1.26108 16.2819 1.50108 16.7319 1.87108 17.0619C2.24108 17.3919 2.73109 17.5719 3.23109 17.5719H5.06109C4.87109 16.9919 4.77109 16.3819 4.77109 15.7719C4.77109 13.6719 5.89108 11.7319 7.71108 10.6719C9.53109 9.62185 11.7711 9.62185 13.5911 10.6719C15.4111 11.7219 16.5311 13.6619 16.5311 15.7719C16.5311 16.3919 16.4311 17.0119 16.2411 17.5919H38.7311C38.5311 17.0019 38.4311 16.3919 38.4311 15.7719C38.4311 13.6719 39.5511 11.7319 41.3711 10.6719C43.1911 9.62185 45.4311 9.62185 47.2511 10.6719C49.0711 11.7219 50.1911 13.6619 50.1911 15.7719C50.1911 16.3919 50.0911 17.0119 49.9011 17.5919H51.5511C52.1011 17.5919 52.6211 17.3719 53.0111 16.9819C53.4011 16.5919 53.6111 16.0619 53.6011 15.5219V12.4119C53.6011 11.7419 53.2811 11.1119 52.7211 10.7319L52.7411 10.7419ZM24.1811 6.85185H15.2211L13.5711 3.80185L15.6111 2.45185C16.0711 2.14185 16.5911 1.94185 17.1411 1.85185C19.4711 1.53185 21.8311 1.40185 24.1911 1.45185V6.85185H24.1811ZM25.2811 6.85185V1.49185C26.7111 1.53185 28.1411 1.65185 29.5611 1.85185C30.1411 1.94185 30.7011 2.17185 31.1811 2.51185L37.3711 6.86185H25.2811V6.85185Z" />
</g>
</svg>
