<svg width="41" height="36" viewBox="0 0 41 36"  xmlns="http://www.w3.org/2000/svg">
<g id="Suspicious Activity">
<path id="Vector" d="M39.6056 30.9566L22.5588 1.79095C21.4207 -0.154519 18.5795 -0.154519 17.4497 1.79095L0.402822 30.9566C-0.735297 32.9021 0.685276 35.3318 2.96152 35.3318H37.047C39.3149 35.3318 40.7355 32.9021 39.6056 30.9566ZM21.9523 30.6282C21.4871 31.0797 20.8474 31.3014 20.025 31.3014C19.2026 31.3014 18.5297 31.0797 18.0644 30.6364C17.5992 30.1932 17.3749 29.5693 17.3749 28.7731C17.3749 27.9768 17.5992 27.3119 18.0561 26.8851C18.5047 26.4582 19.161 26.2448 20.025 26.2448C20.889 26.2448 21.5037 26.4664 21.9606 26.9015C22.4175 27.3365 22.6418 27.9604 22.6418 28.7731C22.6418 29.5857 22.4092 30.1768 21.9523 30.6282V30.6282ZM21.8776 23.6919H18.2057L17.4414 9.15419H22.6502L21.8859 23.6919H21.8776Z" />
</g>
</svg>
