<svg width="46" height="54" viewBox="0 0 46 54"  xmlns="http://www.w3.org/2000/svg">
<g id="Theft" >
<path id="Vector" d="M24.4512 11.3799C25.6212 12.7199 27.1212 15.8399 29.2412 24.6899L29.3512 25.1899C29.4612 25.6399 29.5712 26.1399 29.6312 26.6399C35.5912 34.0499 45.2212 31.3199 45.2212 22.0699C45.2212 10.3799 31.3012 10.5399 24.4512 11.3799Z" />
<path id="Vector_2" d="M39.2111 33.6499L29.4611 33.9299L28.5711 30.9199C28.5711 30.9199 28.5711 30.9799 28.5111 30.9799C27.7311 31.9799 25.6111 34.5999 24.1111 36.5499C25.1111 38.5499 27.1211 39.8899 29.4011 39.8899H29.5711L39.3711 39.6099C40.9811 39.5499 42.2711 38.2199 42.2111 36.5499C42.2111 34.8799 40.8211 33.5999 39.2011 33.6499H39.2111Z" />
<path id="Vector_3" d="M27.2912 25.6899C26.8412 23.9599 24.5612 13.7699 22.5612 12.4899C21.7812 11.9899 20.9512 11.8199 20.0512 12.0399C19.4412 12.2099 18.1612 12.4299 17.1512 12.5999L16.1512 12.7699C15.0912 12.9899 14.4212 13.0999 9.91116 20.1799C9.80116 20.3499 9.63116 20.3999 9.46116 20.3999L3.39116 19.9499C2.05116 19.8399 0.831156 20.8399 0.721156 22.2299C0.611156 23.5699 1.61116 24.7899 3.00116 24.8999L9.07116 25.3499C11.0712 25.5199 12.9712 24.5099 14.0312 22.8399C14.4812 22.1199 14.8712 21.5599 15.2012 20.9999L18.6512 30.4099L15.9812 33.7499C14.3112 35.8699 13.0312 38.2099 12.1912 40.8199L9.46116 49.2799C8.96116 50.8399 9.85116 52.5099 11.4112 53.0099C11.6912 53.1199 12.0212 53.1799 12.3012 53.1799C13.5812 53.1799 14.6912 52.3999 15.1412 51.1199L17.8712 42.6599C18.4812 40.7699 19.3712 39.0399 20.6012 37.4799C20.6012 37.4799 25.4412 31.4099 26.6712 29.8499C27.7812 28.5099 27.6712 27.3999 27.2812 25.6699L27.2912 25.6899Z" />
<path id="Vector_4" d="M21.7312 4.47987C22.4312 7.40987 20.6312 10.3599 17.7012 11.0599C14.7712 11.7599 11.8212 9.95987 11.1212 7.02987C10.4212 4.09987 12.2212 1.15987 15.1512 0.449866C18.0812 -0.250134 21.0312 1.54987 21.7312 4.47987Z" />
</g>
</svg>
