<svg width="24" height="39" viewBox="0 0 24 39"  xmlns="http://www.w3.org/2000/svg">
<g id="Unfamiliar Person">
<g id="Group">
<path id="Vector" d="M12.7159 7.58496C12.7159 7.58496 12.7824 7.58496 12.809 7.58496C12.8422 7.58496 12.8755 7.58496 12.9021 7.58496C14.8505 7.46987 16.4 5.8383 16.4 3.82762C16.4 1.81693 14.8572 0.198896 12.9087 0.0905762C12.9087 0.0905762 12.8422 0.0905762 12.8156 0.0905762C12.7824 0.0905762 12.7491 0.0905762 12.7225 0.0905762C10.7741 0.205666 9.22461 1.83724 9.22461 3.84116C9.22461 5.84508 10.7741 7.48341 12.7225 7.58496H12.7159Z" />
<path id="Vector_2" d="M21.9329 20.6917L17.1448 8.98637C17.0983 8.87805 17.0384 8.78327 16.9653 8.68849C16.9653 8.68849 16.9653 8.68849 16.9653 8.68172C16.9387 8.64787 16.9121 8.60725 16.8788 8.58017H16.8655C16.7126 8.42446 16.5264 8.31614 16.3069 8.26875V8.24167H15.9744H9.70345H9.3643V8.26875C9.15814 8.31614 8.96529 8.42446 8.81234 8.58017H8.79904C8.79904 8.58017 8.74584 8.64787 8.71259 8.68172C8.71259 8.68172 8.71259 8.68172 8.71259 8.68849C8.63944 8.7765 8.57959 8.87805 8.53304 8.98637L3.73836 20.6917C3.46571 21.3619 3.85806 22.0999 4.60287 22.3436C5.35432 22.5873 6.17893 22.2353 6.44493 21.565L9.45075 14.6325L8.90544 22.1066L6.17228 36.2221C5.95947 37.0886 6.15898 37.9078 7.42248 38.0567C8.68599 38.2057 9.883 37.6235 10.0958 36.7569L12.829 24.5167L15.5621 36.7569C15.7749 37.6235 16.9719 38.2057 18.2355 38.0567C19.499 37.9078 19.6985 37.0886 19.4857 36.2221L16.7525 22.1066L16.2072 14.6325L19.213 21.565C19.4857 22.2353 20.3103 22.5805 21.0551 22.3436C21.8065 22.0999 22.1922 21.3619 21.9196 20.6917H21.9329ZM13.341 18.2951C13.1681 18.4644 12.9354 18.5524 12.6361 18.5524C12.3369 18.5524 12.0842 18.4711 11.9179 18.3019C11.7517 18.1326 11.6652 17.9025 11.6652 17.5978C11.6652 17.2932 11.7517 17.0427 11.9113 16.8802C12.0775 16.7177 12.3169 16.6365 12.6361 16.6365C12.9553 16.6365 13.1814 16.7177 13.3477 16.887C13.5139 17.0494 13.6004 17.2864 13.6004 17.5978C13.6004 17.9092 13.5139 18.1259 13.3477 18.2951H13.341ZM15.1631 13.1702C14.9769 13.4681 14.6311 13.8066 14.1124 14.1857C13.76 14.4498 13.5339 14.6529 13.4408 14.795C13.3477 14.9304 13.3011 15.1132 13.3011 15.3434V15.6819H11.8381V15.2689C11.8381 14.9101 11.9113 14.5987 12.0642 14.3279C12.2172 14.0639 12.4898 13.7795 12.8955 13.4816C13.2812 13.1973 13.5405 12.9739 13.6602 12.7979C13.7866 12.6219 13.8464 12.4255 13.8464 12.2089C13.8464 11.9652 13.76 11.7824 13.5804 11.6537C13.4009 11.5251 13.1548 11.4642 12.8423 11.4642C12.2903 11.4642 11.6586 11.647 10.9537 12.0126L10.3485 10.7804C11.1731 10.3133 12.0443 10.0763 12.962 10.0763C13.7201 10.0763 14.3252 10.2591 14.7708 10.6315C15.2163 11.0038 15.4424 11.498 15.4424 12.1141C15.4424 12.5271 15.3493 12.8859 15.1631 13.1838V13.1702Z" />
</g>
<path id="Vector_3" d="M21.5803 5.28316V5.00559C21.5803 4.76187 21.6335 4.552 21.7333 4.37598C21.833 4.19996 22.0192 4.0104 22.2919 3.8073C22.5512 3.61774 22.7241 3.46203 22.8039 3.34694C22.8837 3.23185 22.9303 3.09645 22.9303 2.94751C22.9303 2.78503 22.8704 2.6564 22.7507 2.57516C22.631 2.48715 22.4648 2.44653 22.252 2.44653C21.8796 2.44653 21.4606 2.56839 20.9818 2.81888L20.5762 1.99294C21.1281 1.68152 21.7133 1.51904 22.3318 1.51904C22.8438 1.51904 23.2428 1.6409 23.5487 1.89139C23.8546 2.14188 24.0009 2.47361 24.0009 2.88658C24.0009 3.16415 23.9411 3.4011 23.8147 3.6042C23.6884 3.8073 23.4556 4.03071 23.1098 4.2812C22.8704 4.45722 22.7241 4.59262 22.6576 4.6874C22.5911 4.78218 22.5645 4.90404 22.5645 5.05298V5.27639H21.5803V5.28316ZM21.4606 6.57623C21.4606 6.36636 21.5138 6.20388 21.6269 6.09556C21.7399 5.98724 21.8995 5.93308 22.1123 5.93308C22.3251 5.93308 22.4781 5.98724 22.5911 6.10233C22.7042 6.21065 22.7574 6.37313 22.7574 6.57623C22.7574 6.77933 22.6975 6.93504 22.5845 7.04336C22.4714 7.15845 22.3118 7.21261 22.1123 7.21261C21.9128 7.21261 21.7466 7.15845 21.6335 7.04336C21.5205 6.92827 21.4606 6.77256 21.4606 6.56946V6.57623Z" />
<path id="Vector_4" d="M0.998541 9.06081V8.78324C0.998541 8.53952 1.05174 8.32965 1.15149 8.15363C1.25124 7.97761 1.43744 7.78805 1.7101 7.58495C1.96945 7.39539 2.14235 7.23968 2.22215 7.12459C2.30195 7.0095 2.3485 6.8741 2.3485 6.72516C2.3485 6.56268 2.28865 6.43405 2.16895 6.35281C2.04925 6.2648 1.883 6.22418 1.6702 6.22418C1.29779 6.22418 0.87884 6.34604 0.400037 6.59653L-0.00561523 5.77059C0.546338 5.45917 1.13154 5.29669 1.75 5.29669C2.26205 5.29669 2.66105 5.41855 2.96695 5.66904C3.27286 5.91953 3.41916 6.25126 3.41916 6.66423C3.41916 6.9418 3.35931 7.17875 3.23296 7.38185C3.1066 7.58495 2.87385 7.80836 2.52805 8.05885C2.28865 8.23487 2.14235 8.37027 2.07585 8.46505C2.00935 8.55983 1.98275 8.68169 1.98275 8.83063V9.05404H0.998541V9.06081ZM0.87884 10.3539C0.87884 10.144 0.932041 9.98153 1.04509 9.87321C1.15814 9.76489 1.31774 9.71073 1.53054 9.71073C1.74335 9.71073 1.8963 9.76489 2.00935 9.87998C2.1224 9.9883 2.1756 10.1508 2.1756 10.3539C2.1756 10.557 2.11575 10.7127 2.0027 10.821C1.88965 10.9361 1.73005 10.9903 1.53054 10.9903C1.33104 10.9903 1.16479 10.9361 1.05174 10.821C0.938691 10.7059 0.87884 10.5502 0.87884 10.3471V10.3539Z" />
</g>
</svg>
