<svg width="53" height="45" viewBox="0 0 53 45"  xmlns="http://www.w3.org/2000/svg">
<g id="Violence &#38; Threats" >
<path id="Vector" d="M46.971 12.4619C47.081 14.9119 45.181 16.9819 42.741 17.0919C40.291 17.2019 38.221 15.3019 38.111 12.8619C38.001 10.4119 39.901 8.3419 42.341 8.2319C44.791 8.1219 46.861 10.0219 46.971 12.4619" />
<path id="Vector_2" d="M52.191 22.9719C51.471 21.2519 47.141 18.0919 45.421 18.0919H39.761C38.981 17.9219 36.601 16.3219 35.931 15.5419C35.871 14.6519 35.871 12.1019 35.991 9.9419C36.051 8.8319 35.211 7.8919 34.101 7.8319C32.991 7.7719 32.051 8.6119 31.991 9.7219C31.881 11.8319 31.711 15.4919 32.051 16.7119C32.491 18.4319 35.931 20.9219 38.261 21.7619L37.211 29.0219C35.821 29.2419 33.941 29.5219 32.881 29.7419C31.831 29.9119 29.611 30.3519 27.171 41.6619C26.891 42.8819 27.671 44.1019 28.891 44.3819C29.061 44.4419 29.221 44.4419 29.391 44.4419C30.441 44.4419 31.391 43.7219 31.611 42.6719C32.391 39.0719 33.551 35.3519 34.271 34.1319C35.321 33.9619 36.821 33.6919 37.931 33.5219C36.821 34.9119 36.041 36.2419 36.381 37.7319C36.821 39.7319 39.371 42.4419 40.871 43.8319C41.311 44.2219 41.871 44.4419 42.421 44.4419C43.031 44.4419 43.641 44.2219 44.081 43.7219C44.971 42.8319 44.911 41.3419 43.971 40.5019C42.691 39.2819 41.421 37.7819 40.981 37.0619C41.311 36.5119 42.091 35.6219 42.641 35.0619C43.861 33.6719 45.021 32.4019 45.411 31.0119C45.851 29.3519 46.351 24.8019 46.571 22.9719C47.351 23.5219 48.121 24.1319 48.461 24.5219C48.571 25.1319 48.631 26.9619 48.571 28.6819C48.511 29.7919 49.401 30.6819 50.461 30.7319H50.521C51.571 30.7319 52.461 29.9019 52.521 28.8419C52.691 27.1219 52.691 24.2419 52.191 22.9619V22.9719Z" />
<path id="Vector_3" d="M17.641 5.0719C20.051 5.3319 21.781 7.4919 21.521 9.9019C21.261 12.3119 19.101 14.0419 16.691 13.7819C14.281 13.5219 12.551 11.3619 12.811 8.9519C13.071 6.5419 15.231 4.8119 17.641 5.0719" />
<path id="Vector_4" d="M27.851 17.9319C28.351 17.8219 28.631 17.3219 28.521 16.8819L28.191 15.5519C28.911 14.8819 29.081 13.7819 28.471 12.9419C28.191 12.5519 27.801 12.2719 27.361 12.1619L24.631 1.0719C24.521 0.571898 24.021 0.291898 23.581 0.401898C23.081 0.511898 22.801 1.0119 22.911 1.4519L25.571 12.4319L22.741 14.3719C21.741 15.0419 20.581 15.4219 19.411 15.3719C18.131 15.3119 17.081 15.1519 16.361 14.8719C16.141 14.8119 15.811 14.6519 15.421 14.4819C14.371 14.0419 13.591 13.7019 13.041 13.5919C12.491 13.4819 11.991 13.3119 6.66104 14.7019C5.50104 14.9819 4.44104 15.6419 3.61104 16.5319L0.501043 19.9119C-0.218957 20.7419 -0.168957 21.9619 0.611043 22.7419C1.00104 23.0719 1.50104 23.2419 1.94104 23.2419C2.49104 23.2419 2.99104 23.0219 3.38104 22.5719L6.49104 19.1919C6.77104 18.8619 7.16104 18.6419 7.60104 18.5219C7.93104 18.4119 8.27104 18.3519 8.54104 18.3019L5.88104 24.6219C5.33104 25.9019 5.55104 27.3919 6.43104 28.4519L7.21104 29.3919L6.43104 32.7219C6.21104 33.6119 5.76104 34.4419 5.21104 35.1619L1.27104 40.1519C0.491043 41.1519 0.661043 42.5919 1.66104 43.3719C2.10104 43.7019 2.60104 43.8719 3.10104 43.8719C3.77104 43.8719 4.43104 43.5919 4.87104 42.9819L8.81104 37.9919C9.81104 36.7719 10.471 35.3319 10.861 33.7819C11.471 34.6119 11.861 35.5519 12.021 36.6119L12.741 41.8819C12.911 43.0419 13.851 43.8819 15.011 43.8819H15.341C16.621 43.7119 17.451 42.5519 17.281 41.3319L16.561 36.0619C16.281 34.0119 15.451 32.1219 14.121 30.5719L12.401 28.5219L17.341 19.2619C17.951 19.3719 18.561 19.4319 19.231 19.4319C21.231 19.5419 23.281 18.9319 25.001 17.7719L26.611 16.6619L26.781 17.2719C26.891 17.6619 27.221 17.9419 27.671 17.9419C27.671 18.0019 27.781 18.0019 27.841 17.9419L27.851 17.9319Z" />
</g>
</svg>
